<svg data-v-423bf9ae="" xmlns="http://www.w3.org/2000/svg" viewBox="0 0 472 90" class="iconLeft"><!----><!----><!----><g data-v-423bf9ae="" id="cb7cfb1f-1b61-4eba-bf88-29f710689292" fill="#B4846C" transform="matrix(4.823151288092832,0,0,4.823151288092832,150.55756234020663,0.09646126483749384)"><path d="M0.63 8.25L0.63 8.25L0.63 8.25Q0.67 7.76 1.01 7.76L1.01 7.76L1.01 7.76Q1.23 7.76 1.58 7.98L1.58 7.98L1.50 3.88L1.50 3.88Q1.50 3.57 1.67 3.37L1.67 3.37L1.67 3.37Q1.83 3.16 2.07 3.16L2.07 3.16L2.07 3.16Q2.31 3.16 2.48 3.36L2.48 3.36L2.48 3.36Q2.65 3.56 2.65 3.88L2.65 3.88L2.65 3.88Q2.65 4.20 2.61 5.08L2.61 5.08L2.61 5.08Q2.58 5.96 2.58 8.36L2.58 8.36L2.58 8.36Q3.18 8.57 4.19 8.57L4.19 8.57L4.19 8.57Q6.43 8.57 7.52 7.20L7.52 7.20L7.45 4.10L7.45 4.10Q7.45 3.16 8.06 3.16L8.06 3.16L8.06 3.16Q8.55 3.16 8.65 3.60L8.65 3.60L8.65 3.60Q8.76 4.00 8.76 4.92L8.76 4.92L8.76 4.92Q8.76 5.84 8.50 7.69L8.50 7.69L8.60 13.23L8.60 13.23Q8.61 13.66 8.32 13.85L8.32 13.85L8.32 13.85Q8.18 13.94 8.02 13.94L8.02 13.94L7.73 13.85L7.73 13.85Q7.43 13.66 7.45 13.23L7.45 13.23L7.53 8.97L7.53 8.53L7.53 8.53Q7 8.97 6.03 9.24L6.03 9.24L6.03 9.24Q5.05 9.51 4.17 9.51L4.17 9.51L4.17 9.51Q3.28 9.51 2.58 9.37L2.58 9.37L2.65 13.23L2.65 13.23Q2.66 13.66 2.37 13.85L2.37 13.85L2.37 13.85Q2.21 13.94 2.07 13.94L2.07 13.94L1.78 13.85L1.78 13.85Q1.48 13.66 1.50 13.23L1.50 13.23L1.55 9.13L1.55 9.13Q0.63 8.82 0.63 8.25ZM16.55 10.42L16.55 10.42L16.55 10.42Q16.55 11.44 16.70 12.12L16.70 12.12L16.70 12.12Q16.84 12.80 17.07 12.88L17.07 12.88L17.07 12.88Q17.15 12.92 17.27 12.94L17.27 12.94L17.27 12.94Q17.39 12.95 17.44 12.98L17.44 12.98L17.44 12.98Q17.49 13.01 17.49 13.09L17.49 13.09L17.49 13.09Q17.49 13.48 17.28 13.71L17.28 13.71L17.28 13.71Q17.07 13.94 16.67 13.94L16.67 13.94L16.67 13.94Q16.27 13.94 16.04 13.43L16.04 13.43L16.04 13.43Q15.82 12.92 15.82 12.10L15.82 12.10L15.82 12.10Q15.44 12.91 14.77 13.43L14.77 13.43L14.77 13.43Q14.10 13.94 13.25 13.94L13.25 13.94L13.25 13.94Q12.40 13.94 11.80 13.38L11.80 13.38L11.80 13.38Q10.68 12.35 10.68 10.46L10.68 10.46L10.68 10.46Q10.68 8.93 11.56 7.80L11.56 7.80L11.56 7.80Q12.45 6.66 13.83 6.66L13.83 6.66L13.83 6.66Q14.88 6.66 15.65 7.38L15.65 7.38L15.65 7.38Q15.65 6.66 16.18 6.66L16.18 6.66L16.18 6.66Q16.83 6.66 16.83 7.62L16.83 7.62L16.83 7.62Q16.83 8.58 16.55 10.42ZM15.74 10.54L15.74 10.54L15.67 8.39L15.67 8.39Q14.84 7.57 13.92 7.57L13.92 7.57L13.92 7.57Q12.99 7.57 12.33 8.40L12.33 8.40L12.33 8.40Q11.68 9.23 11.68 10.39L11.68 10.39L11.68 10.39Q11.68 11.56 12.11 12.30L12.11 12.30L12.11 12.30Q12.54 13.03 13.31 13.03L13.31 13.03L13.31 13.03Q14.08 13.03 14.73 12.35L14.73 12.35L14.73 12.35Q15.39 11.66 15.74 10.54ZM20.10 3.86L20.10 3.86L20.03 8.55L20.10 13.24L20.10 13.24Q20.10 13.94 19.57 13.94L19.57 13.94L19.57 13.94Q19.04 13.94 19.04 13.24L19.04 13.24L19.11 8.55L19.04 3.86L19.04 3.86Q19.04 3.16 19.57 3.16L19.57 3.16L19.57 3.16Q20.10 3.16 20.10 3.86ZM21.95 6.78L21.95 6.78L22.65 6.80L22.65 5.61L22.65 5.61Q22.65 4.38 23.13 3.77L23.13 3.77L23.13 3.77Q23.62 3.16 24.30 3.16L24.30 3.16L24.30 3.16Q24.99 3.16 25.44 3.42L25.44 3.42L25.44 3.42Q25.90 3.67 25.90 3.98L25.90 3.98L25.90 3.98Q25.90 4.44 25.51 4.44L25.51 4.44L25.51 4.44Q25.41 4.44 25.04 4.27L25.04 4.27L25.04 4.27Q24.67 4.10 24.46 4.10L24.46 4.10L24.46 4.10Q23.59 4.10 23.59 5.74L23.59 5.74L23.59 6.80L24.95 6.78L24.95 6.78Q25.17 6.78 25.33 6.90L25.33 6.90L25.33 6.90Q25.48 7.01 25.48 7.22L25.48 7.22L25.48 7.22Q25.48 7.64 24.95 7.64L24.95 7.64L23.59 7.62L23.63 12.64L23.63 12.64Q23.63 14.03 23.12 14.78L23.12 14.78L23.12 14.78Q22.61 15.53 22.07 15.53L22.07 15.53L22.07 15.53Q21.53 15.53 21.53 15.26L21.53 15.26L21.53 15.26Q21.53 15.15 21.64 15.04L21.64 15.04L21.64 15.04Q21.74 14.94 21.92 14.77L21.92 14.77L21.92 14.77Q22.11 14.60 22.23 14.42L22.23 14.42L22.23 14.42Q22.64 13.85 22.68 12.78L22.68 12.78L22.68 12.78Q22.72 11.72 22.72 10.29L22.72 10.29L22.72 10.29Q22.72 8.86 22.67 7.62L22.67 7.62L21.95 7.64L21.95 7.64Q21.42 7.64 21.42 7.22L21.42 7.22L21.42 7.22Q21.42 7.01 21.57 6.90L21.57 6.90L21.57 6.90Q21.73 6.78 21.95 6.78ZM28.34 11.49L28.34 11.49L28.41 9.67L28.41 9.67Q27.48 9.63 26.97 9.23L26.97 9.23L26.97 9.23Q26.46 8.83 26.46 8.30L26.46 8.30L26.46 8.30Q26.46 7.77 26.97 7.38L26.97 7.38L26.97 7.38Q27.48 6.99 28.41 6.85L28.41 6.85L28.41 6.85Q28.28 4.70 28.28 4.41L28.28 4.41L28.28 4.41Q28.28 3.09 30.83 3.09L30.83 3.09L30.83 3.09Q32.62 3.09 33.61 3.83L33.61 3.83L33.61 3.83Q34.59 4.56 34.59 5.66L34.59 5.66L34.59 5.66Q34.59 6.75 33.50 7.69L33.50 7.69L33.50 7.69Q35.36 8.71 35.36 10.40L35.36 10.40L35.36 10.40Q35.36 11.51 34.68 12.36L34.68 12.36L34.68 12.36Q33.99 13.20 32.90 13.61L32.90 13.61L32.90 13.61Q31.81 14.01 30.70 14.01L30.70 14.01L30.70 14.01Q29.47 14.01 28.45 13.71L28.45 13.71L28.45 13.71Q27.43 13.41 26.88 13.01L26.88 13.01L26.88 13.01Q26.33 12.60 26.33 12.33L26.33 12.33L26.33 12.33Q26.33 12.05 26.47 11.91L26.47 11.91L26.47 11.91Q26.61 11.76 26.81 11.76L26.81 11.76L26.81 11.76Q26.81 11.76 26.87 11.76L26.87 11.76L26.87 11.76Q26.94 11.76 27.25 11.95L27.25 11.95L27.25 11.95Q27.57 12.14 27.96 12.39L27.96 12.39L27.96 12.39Q28.36 12.64 29.01 12.84L29.01 12.84L29.01 12.84Q29.67 13.03 30.31 13.03L30.31 13.03L30.31 13.03Q30.35 13.03 30.39 13.03L30.39 13.03L30.39 13.03Q32.06 13.03 33.15 12.31L33.15 12.31L33.15 12.31Q34.24 11.58 34.24 10.43L34.24 10.43L34.24 10.43Q34.24 9.77 33.85 9.21L33.85 9.21L33.85 9.21Q33.46 8.65 32.79 8.32L32.79 8.32L32.79 8.32Q31.35 9.38 29.41 9.63L29.41 9.63L29.47 11.42L29.47 11.42Q29.47 11.48 29.47 11.52L29.47 11.52L29.47 11.52Q29.47 11.89 29.22 12.04L29.22 12.04L29.22 12.04Q29.06 12.14 28.91 12.14L28.91 12.14L28.60 12.04L28.60 12.04Q28.34 11.87 28.34 11.49ZM29.39 4.40L29.39 4.40L29.39 4.40Q29.39 4.89 29.41 6.76L29.41 6.76L29.41 6.76Q31.11 6.76 32.62 7.29L32.62 7.29L32.62 7.29Q33.56 6.58 33.56 5.73L33.56 5.73L33.56 5.73Q33.56 4.87 32.86 4.47L32.86 4.47L32.86 4.47Q32.16 4.07 31.11 4.07L31.11 4.07L31.11 4.07Q30.07 4.07 29.39 4.40ZM29.39 7.71L29.39 7.71L29.39 8.68L29.39 8.68Q30.00 8.65 30.75 8.44L30.75 8.44L30.75 8.44Q31.50 8.22 31.92 7.94L31.92 7.94L31.92 7.94Q31.15 7.69 29.78 7.69L29.78 7.69L29.78 7.69Q29.53 7.69 29.39 7.71ZM28.42 8.74L28.42 8.74L28.42 7.78L28.42 7.78Q27.43 7.90 27.43 8.25L27.43 8.25L27.43 8.25Q27.43 8.71 28.42 8.74ZM42.64 10.42L42.64 10.42L42.64 10.42Q42.64 11.44 42.79 12.12L42.79 12.12L42.79 12.12Q42.94 12.80 43.16 12.88L43.16 12.88L43.16 12.88Q43.25 12.92 43.36 12.94L43.36 12.94L43.36 12.94Q43.48 12.95 43.53 12.98L43.53 12.98L43.53 12.98Q43.58 13.01 43.58 13.09L43.58 13.09L43.58 13.09Q43.58 13.48 43.37 13.71L43.37 13.71L43.37 13.71Q43.16 13.94 42.76 13.94L42.76 13.94L42.76 13.94Q42.36 13.94 42.14 13.43L42.14 13.43L42.14 13.43Q41.92 12.92 41.92 12.10L41.92 12.10L41.92 12.10Q41.54 12.91 40.87 13.43L40.87 13.43L40.87 13.43Q40.19 13.94 39.35 13.94L39.35 13.94L39.35 13.94Q38.50 13.94 37.90 13.38L37.90 13.38L37.90 13.38Q36.78 12.35 36.78 10.46L36.78 10.46L36.78 10.46Q36.78 8.93 37.66 7.80L37.66 7.80L37.66 7.80Q38.54 6.66 39.93 6.66L39.93 6.66L39.93 6.66Q40.98 6.66 41.75 7.38L41.75 7.38L41.75 7.38Q41.75 6.66 42.28 6.66L42.28 6.66L42.28 6.66Q42.92 6.66 42.92 7.62L42.92 7.62L42.92 7.62Q42.92 8.58 42.64 10.42ZM41.83 10.54L41.83 10.54L41.76 8.39L41.76 8.39Q40.94 7.57 40.01 7.57L40.01 7.57L40.01 7.57Q39.09 7.57 38.43 8.40L38.43 8.40L38.43 8.40Q37.77 9.23 37.77 10.39L37.77 10.39L37.77 10.39Q37.77 11.56 38.21 12.30L38.21 12.30L38.21 12.30Q38.64 13.03 39.41 13.03L39.41 13.03L39.41 13.03Q40.18 13.03 40.83 12.35L40.83 12.35L40.83 12.35Q41.48 11.66 41.83 10.54ZM46.16 10.19L46.16 10.19L46.20 13.23L46.20 13.23Q46.20 13.94 45.67 13.94L45.67 13.94L45.67 13.94Q45.02 13.94 45.02 12.98L45.02 12.98L45.02 12.98Q45.02 12.03 45.30 10.19L45.30 10.19L45.30 10.19Q45.30 9.24 45.18 6.60L45.18 6.60L45.18 6.60Q45.05 3.96 45.05 3.75L45.05 3.75L45.05 3.75Q45.05 3.54 45.20 3.35L45.20 3.35L45.20 3.35Q45.35 3.15 45.51 3.15L45.51 3.15L45.51 3.15Q45.67 3.15 45.81 3.22L45.81 3.22L45.81 3.22Q46.14 3.37 46.14 3.77L46.14 3.77L46.14 3.77Q46.14 3.82 46.14 3.86L46.14 3.86L46.14 8.44L46.14 8.44Q47.17 6.66 48.66 6.66L48.66 6.66L48.66 6.66Q49.46 6.66 49.96 7.13L49.96 7.13L49.96 7.13Q50.46 7.60 50.46 8.30L50.46 8.30L50.46 8.30Q50.46 9.45 49.27 10.26L49.27 10.26L48.58 10.71L49.62 12.31L49.62 12.31Q49.80 12.60 50.03 12.75L50.03 12.75L50.03 12.75Q50.26 12.91 50.42 12.93L50.42 12.93L50.42 12.93Q50.58 12.95 50.68 12.98L50.68 12.98L50.68 12.98Q50.78 13.01 50.76 13.09L50.76 13.09L50.76 13.09Q50.76 13.43 50.55 13.69L50.55 13.69L50.55 13.69Q50.34 13.94 50.05 13.94L50.05 13.94L50.05 13.94Q49.99 13.94 49.83 13.94L49.83 13.94L49.83 13.94Q49.48 13.94 48.96 13.09L48.96 13.09L48.96 13.09Q48.94 13.05 48.92 13.02L48.92 13.02L48.92 13.02Q48.90 12.99 48.41 12.20L48.41 12.20L48.41 12.20Q47.92 11.41 47.64 11.02L47.64 11.02L47.64 11.02Q47.28 11.02 47.04 10.82L47.04 10.82L47.04 10.82Q46.80 10.63 46.80 10.26L46.80 10.26L46.80 10.26Q46.80 9.90 47.21 9.73L47.21 9.73L47.21 9.73Q47.32 9.69 47.43 9.69L47.43 9.69L47.43 9.69Q47.75 9.69 48.12 10.04L48.12 10.04L48.12 10.04Q48.65 9.80 49.06 9.31L49.06 9.31L49.06 9.31Q49.48 8.82 49.48 8.43L49.48 8.43L49.48 8.43Q49.48 7.59 48.61 7.59L48.61 7.59L48.61 7.59Q47.82 7.59 47.12 8.37L47.12 8.37L47.12 8.37Q46.42 9.16 46.16 10.19ZM55.57 7.50L55.57 7.50L55.57 7.50Q54.64 7.50 54.02 8.20L54.02 8.20L54.02 8.20Q53.40 8.89 53.20 9.81L53.20 9.81L53.20 9.81Q53.96 10.04 54.90 10.04L54.90 10.04L54.90 10.04Q55.85 10.04 56.42 9.72L56.42 9.72L56.42 9.72Q56.99 9.39 56.99 8.83L56.99 8.83L56.99 8.83Q56.99 8.27 56.61 7.89L56.61 7.89L56.61 7.89Q56.22 7.50 55.57 7.50ZM54.96 10.92L54.96 10.92L54.96 10.92Q54.24 10.92 53.19 10.71L53.19 10.71L53.19 10.71Q53.27 11.70 53.92 12.40L53.92 12.40L53.92 12.40Q54.57 13.10 55.44 13.10L55.44 13.10L55.44 13.10Q56.31 13.10 56.87 12.68L56.87 12.68L56.87 12.68Q57.43 12.25 57.60 12.25L57.60 12.25L57.60 12.25Q57.78 12.25 57.88 12.36L57.88 12.36L57.88 12.36Q57.99 12.46 57.99 12.61L57.99 12.61L57.99 12.61Q57.99 13.01 57.18 13.51L57.18 13.51L57.18 13.51Q56.38 14.01 55.44 14.01L55.44 14.01L55.44 14.01Q53.98 14.01 53.12 12.98L53.12 12.98L53.12 12.98Q52.26 11.96 52.21 10.53L52.21 10.53L52.21 10.53Q51.46 10.29 51.46 9.80L51.46 9.80L51.46 9.80Q51.46 9.48 51.70 9.38L51.70 9.38L51.70 9.38Q51.79 9.35 51.92 9.35L51.92 9.35L51.92 9.35Q52.05 9.35 52.29 9.48L52.29 9.48L52.29 9.48Q52.61 8.20 53.46 7.40L53.46 7.40L53.46 7.40Q54.31 6.59 55.45 6.59L55.45 6.59L55.45 6.59Q56.59 6.59 57.29 7.22L57.29 7.22L57.29 7.22Q57.99 7.85 57.99 8.87L57.99 8.87L57.99 8.87Q57.99 9.88 57.12 10.40L57.12 10.40L57.12 10.40Q56.25 10.92 54.96 10.92ZM64.61 10.61L64.61 10.61L64.61 8.39L64.61 8.39Q63.78 7.57 62.62 7.57L62.62 7.57L62.62 7.57Q61.74 7.57 61.05 8.39L61.05 8.39L61.05 8.39Q60.37 9.21 60.37 10.32L60.37 10.32L60.37 10.32Q60.37 11.44 60.86 12.25L60.86 12.25L60.86 12.25Q61.35 13.03 62.19 13.03L62.19 13.03L62.19 13.03Q63.66 13.03 64.61 10.61ZM65.20 3.16L65.20 3.16L65.20 3.16Q65.88 3.16 65.88 4.30L65.88 4.30L65.88 4.30Q65.88 4.73 65.83 5.31L65.83 5.31L65.66 7.14L65.66 7.14Q65.51 8.85 65.48 9.20L65.48 9.20L65.48 9.20Q65.48 11.03 65.61 11.94L65.61 11.94L65.61 11.94Q65.74 12.84 66.09 12.91L66.09 12.91L66.09 12.91Q66.46 12.91 66.46 13.12L66.46 13.12L66.46 13.12Q66.46 13.43 66.25 13.69L66.25 13.69L66.25 13.69Q66.05 13.94 65.67 13.94L65.67 13.94L65.67 13.94Q64.89 13.94 64.71 12.07L64.71 12.07L64.71 12.07Q63.67 13.94 62.12 13.94L62.12 13.94L62.12 13.94Q61.19 13.94 60.55 13.36L60.55 13.36L60.55 13.36Q59.33 12.28 59.33 10.46L59.33 10.46L59.33 10.46Q59.33 8.93 60.26 7.80L60.26 7.80L60.26 7.80Q61.18 6.66 62.62 6.66L62.62 6.66L62.62 6.66Q63.67 6.66 64.61 7.35L64.61 7.35L64.61 7.35Q64.64 4.75 64.64 4.17L64.64 4.17L64.64 4.17Q64.64 3.60 64.77 3.38L64.77 3.38L64.77 3.38Q64.90 3.16 65.20 3.16Z"></path></g><!----><g data-v-423bf9ae="" id="e3dfefe7-955a-4ba6-80da-6f079bf55368" transform="matrix(1.5121476429800094,0,0,1.5121476429800094,-8.781177198535005,-38.2257004275404)" stroke="none" fill="#B4846C"><path d="M91.502 57.309c-3.249 0-4.977 1.875-6.12 3.116-1.039 1.127-1.365 1.391-2.186 1.391s-1.147-.264-2.186-1.391c-1.143-1.241-2.871-3.116-6.12-3.116-3.248 0-4.975 1.875-6.118 3.117-1.038 1.127-1.363 1.39-2.182 1.39-.82 0-1.146-.263-2.184-1.391-1.143-1.241-2.87-3.116-6.119-3.116-3.248 0-4.975 1.875-6.117 3.117-1.038 1.127-1.363 1.39-2.182 1.39-.818 0-1.144-.263-2.181-1.39-1.143-1.241-2.869-3.117-6.116-3.117s-4.974 1.875-6.117 3.117c-1.037 1.127-1.363 1.39-2.181 1.39-.818 0-1.144-.263-2.181-1.39-1.143-1.241-2.869-3.117-6.117-3.117s-4.974 1.875-6.117 3.117c-1.038 1.127-1.363 1.39-2.182 1.39s-1.145-.263-2.182-1.39c-1.143-1.241-2.87-3.117-6.118-3.117a2.675 2.675 0 0 0 0 5.35c.819 0 1.145.263 2.182 1.39 1.143 1.241 2.87 3.117 6.118 3.117s4.975-1.875 6.117-3.117c1.038-1.127 1.363-1.39 2.181-1.39s1.144.263 2.181 1.39c1.143 1.241 2.869 3.117 6.116 3.117s4.974-1.875 6.117-3.117c1.037-1.127 1.363-1.39 2.181-1.39.818 0 1.144.263 2.181 1.39 1.143 1.241 2.869 3.117 6.117 3.117 3.248 0 4.975-1.875 6.118-3.117 1.038-1.127 1.363-1.39 2.182-1.39.82 0 1.146.263 2.184 1.391 1.143 1.241 2.87 3.116 6.119 3.116 3.248 0 4.975-1.875 6.118-3.117 1.038-1.127 1.363-1.39 2.182-1.39.821 0 1.147.264 2.186 1.391 1.143 1.241 2.871 3.116 6.12 3.116s4.977-1.875 6.12-3.116c1.039-1.127 1.365-1.391 2.186-1.391a2.675 2.675 0 0 0 0-5.35zM83.22 69.625a2.675 2.675 0 0 0-3.365 1.728l-1.785 5.553c-.519 1.615-2.538 3.086-4.234 3.086H26.164c-1.697 0-3.715-1.471-4.234-3.086l-1.785-5.553a2.676 2.676 0 0 0-5.093 1.637l1.785 5.553c1.226 3.812 5.323 6.799 9.327 6.799h47.672c4.004 0 8.102-2.987 9.327-6.799l1.785-5.553a2.676 2.676 0 0 0-1.728-3.365zM11.073 53.483a2.676 2.676 0 0 0 3.464-1.521C20.066 37.779 31.334 31.174 50 31.174c18.106 0 29.712 6.815 35.482 20.835a2.675 2.675 0 1 0 4.947-2.036C83.834 33.949 70.232 25.824 50 25.824c-20.87 0-34.1 7.915-40.447 24.195a2.675 2.675 0 0 0 1.52 3.464z"></path><path d="M56.406 34.964a2.675 2.675 0 0 0-3.769-.318l-3.158 2.667-3.159-2.667a2.674 2.674 0 1 0-3.451 4.087l2.464 2.08-2.464 2.08a2.675 2.675 0 0 0 3.451 4.087l3.159-2.667 3.158 2.667a2.664 2.664 0 0 0 1.724.631 2.674 2.674 0 0 0 1.727-4.718l-2.464-2.08 2.464-2.08a2.675 2.675 0 0 0 .318-3.769z"></path></g><!----></svg>