<svg data-v-423bf9ae="" xmlns="http://www.w3.org/2000/svg" viewBox="0 0 380 112" class="iconLeftSlogan"><!----><!----><!----><g data-v-423bf9ae="" id="ce594547-170d-489f-965c-889a5a2b9b92" fill="#B4846C" transform="matrix(4.71327589611677,0,0,4.71327589611677,129.75423616024926,-16.16653687674421)"><path d="M8.99 12.56C8.97 12.56 8.93 12.54 8.88 12.54C8.82 12.54 8.75 12.52 8.64 12.50C8.53 12.49 8.37 12.46 8.20 12.43L6.61 10.08C6.44 9.83 6.23 9.63 5.99 9.49C6.34 9.38 6.66 9.23 6.94 9.04C7.22 8.86 7.46 8.65 7.64 8.40C7.83 8.15 7.98 7.88 8.08 7.57C8.18 7.27 8.23 6.94 8.23 6.61C8.23 6.17 8.16 5.80 8.01 5.43C7.87 5.08 7.62 4.76 7.31 4.51C7 4.26 6.59 4.05 6.10 3.91C5.61 3.77 5.01 3.70 4.33 3.70L1.34 3.70L0.28 3.70L0.28 4.52C0.28 4.76 0.39 4.90 0.63 4.96C0.64 4.96 0.67 4.97 0.71 4.97C0.76 4.97 0.83 5.00 0.92 5.01C1.02 5.03 1.18 5.05 1.34 5.08L1.34 12.43C1.18 12.46 1.02 12.49 0.92 12.50C0.83 12.52 0.76 12.53 0.71 12.54C0.67 12.54 0.64 12.56 0.63 12.56C0.39 12.61 0.28 12.75 0.28 12.99L0.28 13.82L1.34 13.82L3.22 13.82L4.28 13.82L4.28 12.99C4.28 12.75 4.17 12.61 3.93 12.56C3.92 12.56 3.89 12.54 3.85 12.54C3.81 12.54 3.74 12.52 3.64 12.50C3.54 12.49 3.39 12.46 3.22 12.43L3.22 9.86L3.93 9.86C4.12 9.86 4.26 9.88 4.35 9.94C4.45 10.00 4.54 10.07 4.62 10.19L6.75 13.44C6.83 13.57 6.92 13.65 7.03 13.72C7.14 13.79 7.28 13.82 7.45 13.82L8.27 13.82L9.14 13.82L9.34 13.82L9.34 12.99C9.34 12.75 9.23 12.61 8.99 12.56ZM5.22 8.37C4.96 8.46 4.65 8.51 4.30 8.51L3.22 8.51L3.22 5.15L4.33 5.15C5.03 5.15 5.54 5.28 5.88 5.56C6.22 5.84 6.38 6.23 6.38 6.75C6.38 7.00 6.34 7.24 6.26 7.45C6.17 7.66 6.05 7.85 5.88 8.01C5.71 8.16 5.49 8.29 5.22 8.37ZM13.34 12.56C13.33 12.56 13.30 12.54 13.26 12.54C13.22 12.54 13.15 12.52 13.05 12.50C12.95 12.49 12.80 12.46 12.63 12.43L12.63 6.64L10.91 6.64L9.84 6.64L9.84 7.46C9.84 7.70 9.95 7.84 10.19 7.90C10.21 7.90 10.23 7.91 10.28 7.91C10.32 7.91 10.39 7.94 10.49 7.95C10.58 7.97 10.74 7.99 10.91 8.02L10.91 12.43C10.74 12.46 10.58 12.49 10.49 12.50C10.39 12.52 10.32 12.53 10.28 12.54C10.23 12.54 10.21 12.56 10.19 12.56C9.95 12.61 9.84 12.75 9.84 12.99L9.84 13.82L10.91 13.82L12.63 13.82L13.69 13.82L13.69 12.99C13.69 12.75 13.58 12.61 13.34 12.56ZM12.89 4.54C12.89 4.38 12.85 4.24 12.80 4.10C12.74 3.96 12.66 3.85 12.56 3.75C12.46 3.65 12.35 3.58 12.21 3.53C12.07 3.47 11.93 3.43 11.77 3.43C11.62 3.43 11.48 3.47 11.34 3.53C11.20 3.58 11.10 3.65 11.00 3.75C10.91 3.85 10.82 3.96 10.77 4.10C10.71 4.24 10.68 4.38 10.68 4.54C10.68 4.69 10.71 4.83 10.77 4.96C10.82 5.08 10.91 5.21 11.00 5.31C11.10 5.40 11.20 5.49 11.34 5.54C11.48 5.60 11.62 5.63 11.77 5.63C11.93 5.63 12.07 5.60 12.21 5.54C12.35 5.49 12.46 5.40 12.56 5.31C12.66 5.21 12.74 5.08 12.80 4.96C12.85 4.83 12.89 4.69 12.89 4.54ZM19.70 12.11C19.63 12.00 19.52 11.96 19.38 11.96C19.26 11.96 19.18 11.98 19.10 12.05C19.01 12.12 18.90 12.19 18.79 12.28C18.68 12.36 18.52 12.43 18.35 12.50C18.19 12.57 17.96 12.60 17.68 12.60C17.40 12.60 17.16 12.54 16.94 12.45C16.72 12.33 16.53 12.18 16.38 11.98C16.23 11.77 16.11 11.52 16.03 11.23C15.95 10.93 15.90 10.58 15.90 10.21C15.90 9.84 15.95 9.52 16.02 9.23C16.09 8.93 16.21 8.68 16.37 8.47C16.52 8.26 16.70 8.12 16.93 8.01C17.15 7.90 17.42 7.84 17.72 7.84C17.96 7.84 18.28 7.88 18.65 7.98C18.70 8.54 18.75 8.88 18.76 8.99C18.80 9.16 18.90 9.25 19.08 9.25L19.66 9.25L19.82 9.25L19.88 9.25L19.89 7.04C18.97 6.69 18.21 6.52 17.63 6.52C17.07 6.52 16.56 6.62 16.13 6.80C15.69 6.99 15.33 7.24 15.04 7.57C14.74 7.91 14.52 8.30 14.36 8.75C14.21 9.20 14.14 9.67 14.14 10.21C14.14 10.79 14.22 11.33 14.39 11.79C14.56 12.25 14.80 12.63 15.09 12.95C15.39 13.27 15.72 13.51 16.11 13.68C16.51 13.85 16.91 13.92 17.36 13.92C17.61 13.92 17.88 13.90 18.13 13.86C18.38 13.82 18.63 13.76 18.87 13.68C19.11 13.58 19.35 13.47 19.57 13.31C19.80 13.16 19.99 12.96 20.19 12.74ZM24.02 6.52C23.49 6.52 22.99 6.62 22.57 6.80C22.15 6.99 21.78 7.24 21.49 7.56C21.20 7.88 20.96 8.26 20.80 8.69C20.65 9.13 20.57 9.58 20.57 10.07C20.57 10.70 20.65 11.26 20.83 11.73C21.01 12.21 21.27 12.61 21.59 12.94C21.91 13.26 22.27 13.51 22.71 13.68C23.14 13.85 23.59 13.92 24.09 13.92C24.35 13.92 24.61 13.90 24.88 13.86C25.14 13.82 25.41 13.76 25.68 13.68C25.93 13.59 26.18 13.47 26.42 13.31C26.66 13.16 26.87 12.96 27.06 12.74L26.56 12.11C26.52 12.05 26.49 12.03 26.43 12.00C26.38 11.97 26.31 11.96 26.24 11.96C26.12 11.96 26.03 11.98 25.91 12.05C25.80 12.12 25.66 12.18 25.51 12.26C25.35 12.35 25.19 12.42 24.98 12.49C24.78 12.56 24.54 12.59 24.26 12.59C23.69 12.59 23.24 12.42 22.89 12.07C22.54 11.72 22.34 11.19 22.29 10.44L26.73 10.44C26.81 10.44 26.87 10.44 26.92 10.42C26.98 10.39 27.02 10.36 27.05 10.30C27.08 10.26 27.09 10.19 27.10 10.11C27.12 10.02 27.13 9.90 27.13 9.77C27.13 9.25 27.05 8.81 26.89 8.40C26.74 7.99 26.53 7.66 26.25 7.38C25.97 7.10 25.65 6.87 25.27 6.73C24.89 6.59 24.47 6.52 24.02 6.52ZM24.05 7.76C24.30 7.76 24.53 7.81 24.72 7.90C24.92 7.98 25.07 8.09 25.20 8.25C25.33 8.40 25.42 8.57 25.48 8.76C25.54 8.96 25.58 9.17 25.58 9.39L22.33 9.39C22.41 8.88 22.60 8.47 22.88 8.19C23.16 7.91 23.55 7.76 24.05 7.76ZM35.10 6.89L35.91 6.89L35.91 4.31C34.64 3.82 33.57 3.58 32.73 3.58C31.96 3.58 31.25 3.71 30.62 3.96C29.97 4.21 29.44 4.58 28.98 5.04C28.52 5.50 28.17 6.03 27.92 6.66C27.66 7.29 27.54 8.01 27.54 8.76C27.54 9.52 27.65 10.21 27.87 10.84C28.10 11.47 28.43 12.01 28.85 12.47C29.27 12.94 29.79 13.29 30.39 13.54C31.00 13.79 31.65 13.93 32.41 13.93C33.25 13.93 33.98 13.79 34.58 13.52C35.18 13.26 35.69 12.87 36.09 12.36L35.35 11.55C35.28 11.47 35.18 11.44 35.08 11.44C35.03 11.44 34.97 11.44 34.92 11.47C34.86 11.49 34.80 11.52 34.76 11.56C34.61 11.70 34.45 11.83 34.30 11.93C34.15 12.03 33.98 12.11 33.81 12.17C33.64 12.22 33.45 12.26 33.24 12.29C33.03 12.32 32.79 12.33 32.54 12.33C32.10 12.33 31.71 12.26 31.33 12.10C30.95 11.93 30.63 11.70 30.35 11.40C30.07 11.09 29.88 10.72 29.71 10.28C29.54 9.83 29.46 9.34 29.46 8.76C29.46 8.22 29.54 7.71 29.71 7.27C29.88 6.82 30.10 6.45 30.38 6.15C30.66 5.84 31.00 5.60 31.40 5.43C31.81 5.26 32.24 5.19 32.72 5.19C33.25 5.19 33.88 5.29 34.65 5.52C34.71 6.13 34.75 6.51 34.78 6.64C34.82 6.80 34.92 6.89 35.10 6.89ZM44.46 12.56C44.35 12.54 44.37 12.54 43.76 12.43L43.76 6.64L42.03 6.64L42.03 6.64L40.98 6.64L40.98 7.46C40.98 7.70 41.09 7.84 41.33 7.90C41.44 7.91 41.44 7.92 42.03 8.02L42.03 11.83C41.79 12.07 41.55 12.25 41.29 12.38C41.02 12.50 40.74 12.57 40.45 12.57C40.04 12.57 39.73 12.46 39.54 12.22C39.34 11.98 39.23 11.63 39.23 11.20L39.23 6.64L37.51 6.64L37.51 6.64L36.44 6.64L36.44 7.46C36.44 7.70 36.55 7.84 36.79 7.90C36.90 7.91 36.90 7.91 37.51 8.02L37.51 11.20C37.51 11.61 37.56 11.97 37.66 12.31C37.77 12.64 37.91 12.92 38.12 13.16C38.33 13.40 38.58 13.61 38.88 13.73C39.19 13.86 39.54 13.93 39.93 13.93C40.17 13.93 40.38 13.90 40.59 13.86C40.80 13.80 40.99 13.73 41.17 13.65C41.36 13.57 41.52 13.47 41.68 13.34C41.83 13.22 41.99 13.08 42.14 12.92L42.27 13.50C42.34 13.71 42.48 13.82 42.70 13.82L43.76 13.82L44.81 13.82L44.81 12.99C44.81 12.75 44.70 12.61 44.46 12.56ZM52.74 8.61C52.61 8.16 52.43 7.77 52.19 7.46C51.95 7.15 51.67 6.92 51.35 6.75C51.03 6.58 50.67 6.51 50.27 6.51C49.77 6.51 49.34 6.61 48.96 6.82C48.58 7.03 48.26 7.28 47.96 7.62L47.82 6.96C47.80 6.85 47.75 6.78 47.67 6.72C47.59 6.66 47.49 6.64 47.38 6.64L46.33 6.64L45.26 6.64L45.26 7.46C45.26 7.70 45.37 7.84 45.61 7.90C45.63 7.90 45.65 7.91 45.70 7.91C45.74 7.91 45.81 7.94 45.91 7.95C46.00 7.97 46.16 7.99 46.33 8.02L46.33 14.77C46.16 14.80 46.00 14.84 45.91 14.85C45.81 14.87 45.74 14.88 45.70 14.88C45.65 14.88 45.63 14.90 45.61 14.90C45.37 14.95 45.26 15.11 45.26 15.34L45.26 16.16L46.33 16.16L48.05 16.16L49.11 16.16L49.11 15.34C49.11 15.11 49.00 14.95 48.76 14.90C48.75 14.90 48.72 14.90 48.68 14.88C48.64 14.87 48.57 14.87 48.47 14.85C48.37 14.84 48.23 14.80 48.05 14.77L48.05 13.22C48.27 13.44 48.54 13.61 48.82 13.73C49.10 13.86 49.43 13.92 49.84 13.92C50.32 13.92 50.75 13.83 51.13 13.64C51.51 13.44 51.83 13.19 52.09 12.85C52.36 12.52 52.57 12.12 52.71 11.66C52.85 11.20 52.93 10.70 52.93 10.16C52.93 9.58 52.86 9.07 52.74 8.61ZM51.03 11.26C50.95 11.56 50.82 11.82 50.68 12.01C50.53 12.21 50.36 12.36 50.15 12.46C49.94 12.56 49.70 12.60 49.43 12.60C49.17 12.60 48.92 12.56 48.69 12.46C48.47 12.36 48.24 12.19 48.05 11.96L48.05 8.74C48.27 8.46 48.51 8.25 48.76 8.09C49.01 7.94 49.32 7.87 49.69 7.87C49.91 7.87 50.11 7.91 50.29 7.99C50.47 8.08 50.62 8.22 50.75 8.40C50.88 8.58 50.97 8.81 51.04 9.10C51.11 9.39 51.14 9.76 51.14 10.18C51.14 10.60 51.11 10.95 51.03 11.26Z"></path></g><!----><g data-v-423bf9ae="" id="2e7baf74-8308-43df-8135-61dd6939fd8e" transform="matrix(1.1107356601291232,0,0,1.1107356601291232,0.4630263231309897,0.4820059177264753)" stroke="none" fill="#B4846C"><path d="M46.15 96.32c5.406 0 10.265-.958 14.493-2.611 1.509-.536 2.604-1.134 3.202-1.646.287-.242.406-.401.444-.47l.041-3.872c-5.257 2.48-11.314 3.878-18.181 3.878-6.161 0-12.028-1.336-17.356-3.806l.09 3.934c.263.285.793.698 1.726 1.154 4.79 2.193 10.033 3.439 15.541 3.439zM7.824 49.011a12.962 12.962 0 0 1-.167-2.108c0-1.325.195-2.605.558-3.812-1.434.466-2.645.984-3.555 1.56a7.409 7.409 0 0 0-.784.575c-.492.428-.598.74-.598.926.002.23.498 1.455 4.546 2.859zm76.354.205c-.996-2.085-3.312-3.338-5.768-2.719-1.965.497-2.705-2.451-.744-2.945a8.05 8.05 0 0 1 1.595-.244 7.952 7.952 0 0 0-2.96-6.036l-6.71 9.427c.152.209.299.43.432.66 1.031 1.746-1.59 3.287-2.617 1.542-1.838-3.126-6.476-3.546-8.6-.228-1.094 1.707-3.657.064-2.562-1.64 1.065-1.662 2.525-2.74 4.126-3.285l3.625-7.112c-1.552-1.663-3.257-2.75-5.947-2.75-.722 0-1.483.069-2.187.106.067-.784.182-1.628.182-2.435a7.971 7.971 0 0 0-7.973-7.971c-5.289 0-7.374 3.808-7.896 8.059 3.232-.152 6.557 1.444 8.275 4.718.939 1.795-1.757 3.209-2.696 1.414-2.201-4.192-8.421-4.211-10.331.382-.778 1.874-3.586.703-2.808-1.166.922-2.222 2.514-3.743 4.357-4.581a7.526 7.526 0 0 0-1.625-.181c-3.917 0-6.006 2.237-7.438 5.244a8.617 8.617 0 0 1 3.36 1.412c1.663 1.164-.086 3.654-1.747 2.49-2.868-2.011-7.077-.932-8.5 2.48-.776 1.872-3.586.703-2.806-1.169 1.185-2.839 3.605-4.621 6.281-5.174a9.299 9.299 0 0 0-3.687-.72c-5.586 0-10.114 4.53-10.114 10.11 0 1.045.161 2.06.457 3.002l.023.075c3.266.802 7.17 1.409 11.234 1.862 1.988.224 3.986.404 5.94.556 1.325-3.875 5.691-6.4 10.411-6.4 3.086 0 5.926 1.044 7.927 2.798 1.527 1.337-.473 3.622-2.001 2.29-1.397-1.225-3.505-2.05-5.926-2.05-3.425 0-6.063 1.598-7.183 3.58 7.344.45 13.462.475 14.727.475 1.765 0 13.052-.043 23.896-1.249 5.277-.587 10.279-1.433 13.978-2.627zm-1.914-6.691c.024.312.039.626.039.944 0 .095-.002.184-.01.273a8.107 8.107 0 0 1 4.719 4.359c2.021-.996 2.32-1.771 2.32-1.951 0-.149-.215-.725-1.491-1.5-.72-.436-1.775-.933-3.322-1.454a40.614 40.614 0 0 0-2.255-.671zm-8.292-9.737L94.396 1.367c2.293-3.346 7.31.092 5.019 3.435L78.068 34.789a11.068 11.068 0 0 1 3.459 4.609c6.414 1.515 11.088 3.785 11.088 7.181 0 1.685-1.146 3.09-3.088 4.267-2.599 14.546-9.75 27.702-21.589 34.929v5.815c0 2.489-2.573 4.314-6.02 5.538-4.677 1.826-9.931 2.838-15.768 2.838-6.08 0-11.848-1.382-17.093-3.789-2.371-1.147-3.958-2.644-3.958-4.587v-5.746C13.506 78.975 5.04 66.396 2.588 50.523.948 49.415 0 48.112 0 46.579c0-1.537.883-2.674 1.728-3.409 1.639-1.423 4.517-2.551 8.061-3.448a13.132 13.132 0 0 1 11.021-5.973c1.759 0 3.442.347 4.979.975a11.011 11.011 0 0 1 9.559-5.538c.656 0 1.302.058 1.927.168 1.021-5.028 5.464-8.81 10.793-8.81 5.857 0 10.647 4.573 10.988 10.342a11.003 11.003 0 0 1 6.422 2.842L79.989 5.269c1.929-3.564 7.281-.671 5.35 2.896L71.623 32.463c.81.023 1.596.135 2.349.325zm-7.395 11.385l5.602-8.624a8.3 8.3 0 0 0-2.341.072l-4.544 8.05c.437.133.866.297 1.283.502z"></path></g><!----><g data-v-423bf9ae="" id="c4914c6c-b183-42d2-baa9-dcb2aa822050" fill="#7D5A50" transform="matrix(0.6403973757998354,0,0,0.6403973757998354,131.04833071296866,58.92413324735421)"><path d="M5.29 2.21L3.98 2.21L0.04 11.48L1.20 11.48L2.34 8.79L6.93 8.79L8.06 11.48L9.23 11.48ZM2.74 7.83L4.63 3.30L6.52 7.83ZM29.60 4.37C27.79 4.37 26.85 5.11 26.85 6.37C26.85 8.93 31.51 7.84 31.51 9.59C31.51 10.54 30.30 10.70 29.72 10.70C28.36 10.70 27.83 10.00 27.76 9.28L26.67 9.28C26.74 10.51 27.76 11.59 29.71 11.59C31.44 11.59 32.56 10.85 32.56 9.49C32.56 6.86 27.90 7.95 27.90 6.27C27.90 5.59 28.48 5.26 29.57 5.26C30.74 5.26 31.19 5.75 31.28 6.36L32.34 6.36C32.21 5.33 31.44 4.37 29.60 4.37ZM40.91 11.48L41.96 11.48L41.96 4.48L40.91 4.48ZM40.87 1.93L40.87 3.30L42 3.30L42 1.93ZM56.50 7.29C56.50 6.05 57.36 5.32 58.39 5.32C59.37 5.32 60.13 6.10 60.13 7.28L60.13 11.48L61.18 11.48L61.18 7.25C61.18 5.49 59.93 4.37 58.59 4.37C57.20 4.37 56.46 5.31 56.18 5.78C55.73 4.89 54.88 4.37 53.96 4.37C52.82 4.37 52.15 4.98 51.83 5.54L51.83 4.48L50.78 4.48L50.78 11.48L51.83 11.48L51.83 7.29C51.83 6.05 52.68 5.32 53.72 5.32C54.70 5.32 55.45 6.10 55.45 7.28L55.45 11.48L56.50 11.48ZM73.49 11.59C75.53 11.59 76.87 9.98 76.87 7.98C76.87 5.98 75.53 4.37 73.49 4.37C72.32 4.37 71.50 4.84 70.98 5.60L70.98 4.48L69.93 4.48L69.93 14.25L70.98 14.25L70.98 10.35C71.50 11.10 72.32 11.59 73.49 11.59ZM73.35 5.32C74.90 5.32 75.82 6.54 75.82 7.98C75.82 9.42 74.90 10.64 73.35 10.64C71.79 10.64 70.92 9.42 70.92 7.98C70.92 6.54 71.79 5.32 73.35 5.32ZM86.30 1.68L85.25 1.68L85.25 11.48L86.30 11.48ZM98.24 10.64C96.82 10.64 95.91 9.65 95.76 8.40L101.63 8.40L101.63 7.98C101.63 5.98 100.30 4.37 98.15 4.37C96.01 4.37 94.68 5.98 94.68 7.98C94.68 9.98 96.08 11.59 98.22 11.59C99.89 11.59 100.93 10.72 101.42 9.46L100.27 9.46C99.89 10.16 99.22 10.64 98.24 10.64ZM98.15 5.32C99.50 5.32 100.34 6.23 100.53 7.42L95.77 7.42C95.97 6.23 96.81 5.32 98.15 5.32ZM123.52 4.37C121.79 4.37 121.09 5.73 120.95 6.20L120.95 4.48L119.90 4.48L119.90 11.48L120.95 11.48L120.95 8.40C120.95 6.86 121.90 5.42 123.47 5.42L123.59 5.42L123.59 4.37ZM134.67 10.64C133.25 10.64 132.34 9.65 132.19 8.40L138.05 8.40L138.05 7.98C138.05 5.98 136.72 4.37 134.58 4.37C132.44 4.37 131.11 5.98 131.11 7.98C131.11 9.98 132.51 11.59 134.65 11.59C136.32 11.59 137.35 10.72 137.84 9.46L136.70 9.46C136.32 10.16 135.65 10.64 134.67 10.64ZM134.58 5.32C135.93 5.32 136.77 6.23 136.96 7.42L132.20 7.42C132.40 6.23 133.24 5.32 134.58 5.32ZM149.49 10.64C147.94 10.64 146.96 9.42 146.96 7.98C146.96 6.54 147.94 5.32 149.49 5.32C150.49 5.32 151.20 5.88 151.52 6.68L152.66 6.68C152.25 5.32 151.00 4.37 149.35 4.37C147.25 4.37 145.91 5.98 145.91 7.98C145.91 9.98 147.25 11.59 149.35 11.59C151.00 11.59 152.25 10.64 152.66 9.28L151.52 9.28C151.20 10.08 150.49 10.64 149.49 10.64ZM160.96 11.48L162.01 11.48L162.01 4.48L160.96 4.48ZM160.92 1.93L160.92 3.30L162.05 3.30L162.05 1.93ZM174.38 11.59C176.43 11.59 177.77 9.98 177.77 7.98C177.77 5.98 176.43 4.37 174.38 4.37C173.22 4.37 172.40 4.84 171.88 5.60L171.88 4.48L170.83 4.48L170.83 14.25L171.88 14.25L171.88 10.35C172.40 11.10 173.22 11.59 174.38 11.59ZM174.24 5.32C175.80 5.32 176.72 6.54 176.72 7.98C176.72 9.42 175.80 10.64 174.24 10.64C172.69 10.64 171.82 9.42 171.82 7.98C171.82 6.54 172.69 5.32 174.24 5.32ZM189.27 10.64C187.85 10.64 186.94 9.65 186.79 8.40L192.65 8.40L192.65 7.98C192.65 5.98 191.32 4.37 189.18 4.37C187.04 4.37 185.71 5.98 185.71 7.98C185.71 9.98 187.11 11.59 189.25 11.59C190.92 11.59 191.95 10.72 192.44 9.46L191.30 9.46C190.92 10.16 190.25 10.64 189.27 10.64ZM189.18 5.32C190.53 5.32 191.37 6.23 191.56 7.42L186.80 7.42C187.00 6.23 187.84 5.32 189.18 5.32ZM213.88 4.37C211.83 4.37 210.49 5.98 210.49 7.98C210.49 9.98 211.83 11.59 213.88 11.59C215.04 11.59 215.87 11.12 216.38 10.36L216.38 11.48L217.43 11.48L217.43 4.48L216.38 4.48L216.38 5.61C215.87 4.86 215.04 4.37 213.88 4.37ZM214.02 10.64C212.46 10.64 211.54 9.42 211.54 7.98C211.54 6.54 212.46 5.32 214.02 5.32C215.57 5.32 216.44 6.54 216.44 7.98C216.44 9.42 215.57 10.64 214.02 10.64ZM229.21 4.37C227.16 4.37 225.82 5.98 225.82 7.98C225.82 9.98 227.16 11.59 229.21 11.59C230.37 11.59 231.20 11.12 231.71 10.36L231.71 11.48L232.76 11.48L232.76 1.68L231.71 1.68L231.71 5.61C231.20 4.86 230.37 4.37 229.21 4.37ZM229.35 10.64C227.79 10.64 226.87 9.42 226.87 7.98C226.87 6.54 227.79 5.32 229.35 5.32C230.90 5.32 231.77 6.54 231.77 7.98C231.77 9.42 230.90 10.64 229.35 10.64ZM241.58 14.25L242.63 14.25L242.63 4.48L241.58 4.48ZM241.54 1.93L241.54 3.30L242.68 3.30L242.68 1.93ZM257.56 11.48L257.56 4.48L256.51 4.48L256.51 8.51C256.51 9.77 255.56 10.64 254.39 10.64C253.25 10.64 252.43 9.80 252.43 8.53L252.43 4.48L251.38 4.48L251.38 8.55C251.38 10.54 252.74 11.59 254.18 11.59C255.32 11.59 256.00 11.06 256.51 10.39L256.51 11.48ZM268.81 4.37C267.01 4.37 266.07 5.11 266.07 6.37C266.07 8.93 270.73 7.84 270.73 9.59C270.73 10.54 269.51 10.70 268.94 10.70C267.58 10.70 267.05 10.00 266.98 9.28L265.89 9.28C265.96 10.51 266.98 11.59 268.93 11.59C270.66 11.59 271.78 10.85 271.78 9.49C271.78 6.86 267.12 7.95 267.12 6.27C267.12 5.59 267.69 5.26 268.79 5.26C269.96 5.26 270.41 5.75 270.49 6.36L271.56 6.36C271.43 5.33 270.66 4.37 268.81 4.37ZM281.93 11.48L281.93 5.40L283.54 5.40L283.54 4.48L281.93 4.48L281.93 1.97L280.88 1.97L280.88 4.48L279.45 4.48L279.45 5.40L280.88 5.40L280.88 11.48ZM294.67 10.64C293.26 10.64 292.35 9.65 292.19 8.40L298.06 8.40L298.06 7.98C298.06 5.98 296.73 4.37 294.59 4.37C292.45 4.37 291.12 5.98 291.12 7.98C291.12 9.98 292.52 11.59 294.66 11.59C296.32 11.59 297.36 10.72 297.85 9.46L296.70 9.46C296.32 10.16 295.65 10.64 294.67 10.64ZM294.59 5.32C295.93 5.32 296.77 6.23 296.97 7.42L292.21 7.42C292.40 6.23 293.24 5.32 294.59 5.32ZM309.97 4.37C308.24 4.37 307.54 5.73 307.40 6.20L307.40 4.48L306.35 4.48L306.35 11.48L307.40 11.48L307.40 8.40C307.40 6.86 308.35 5.42 309.92 5.42L310.04 5.42L310.04 4.37Z"></path></g></svg>