<svg data-v-423bf9ae="" xmlns="http://www.w3.org/2000/svg" viewBox="0 0 248.1539831224362 60" class="font"><!----><!----><!----><g data-v-423bf9ae="" id="17f8939e-ee76-4fb5-92e9-57e511625354" fill="black" transform="matrix(4.71327589611677,0,0,4.71327589611677,-1.3197155609421287,-16.16653687674421)"><path d="M8.99 12.56C8.97 12.56 8.93 12.54 8.88 12.54C8.82 12.54 8.75 12.52 8.64 12.50C8.53 12.49 8.37 12.46 8.20 12.43L6.61 10.08C6.44 9.83 6.23 9.63 5.99 9.49C6.34 9.38 6.66 9.23 6.94 9.04C7.22 8.86 7.46 8.65 7.64 8.40C7.83 8.15 7.98 7.88 8.08 7.57C8.18 7.27 8.23 6.94 8.23 6.61C8.23 6.17 8.16 5.80 8.01 5.43C7.87 5.08 7.62 4.76 7.31 4.51C7 4.26 6.59 4.05 6.10 3.91C5.61 3.77 5.01 3.70 4.33 3.70L1.34 3.70L0.28 3.70L0.28 4.52C0.28 4.76 0.39 4.90 0.63 4.96C0.64 4.96 0.67 4.97 0.71 4.97C0.76 4.97 0.83 5.00 0.92 5.01C1.02 5.03 1.18 5.05 1.34 5.08L1.34 12.43C1.18 12.46 1.02 12.49 0.92 12.50C0.83 12.52 0.76 12.53 0.71 12.54C0.67 12.54 0.64 12.56 0.63 12.56C0.39 12.61 0.28 12.75 0.28 12.99L0.28 13.82L1.34 13.82L3.22 13.82L4.28 13.82L4.28 12.99C4.28 12.75 4.17 12.61 3.93 12.56C3.92 12.56 3.89 12.54 3.85 12.54C3.81 12.54 3.74 12.52 3.64 12.50C3.54 12.49 3.39 12.46 3.22 12.43L3.22 9.86L3.93 9.86C4.12 9.86 4.26 9.88 4.35 9.94C4.45 10.00 4.54 10.07 4.62 10.19L6.75 13.44C6.83 13.57 6.92 13.65 7.03 13.72C7.14 13.79 7.28 13.82 7.45 13.82L8.27 13.82L9.14 13.82L9.34 13.82L9.34 12.99C9.34 12.75 9.23 12.61 8.99 12.56ZM5.22 8.37C4.96 8.46 4.65 8.51 4.30 8.51L3.22 8.51L3.22 5.15L4.33 5.15C5.03 5.15 5.54 5.28 5.88 5.56C6.22 5.84 6.38 6.23 6.38 6.75C6.38 7.00 6.34 7.24 6.26 7.45C6.17 7.66 6.05 7.85 5.88 8.01C5.71 8.16 5.49 8.29 5.22 8.37ZM13.34 12.56C13.33 12.56 13.30 12.54 13.26 12.54C13.22 12.54 13.15 12.52 13.05 12.50C12.95 12.49 12.80 12.46 12.63 12.43L12.63 6.64L10.91 6.64L9.84 6.64L9.84 7.46C9.84 7.70 9.95 7.84 10.19 7.90C10.21 7.90 10.23 7.91 10.28 7.91C10.32 7.91 10.39 7.94 10.49 7.95C10.58 7.97 10.74 7.99 10.91 8.02L10.91 12.43C10.74 12.46 10.58 12.49 10.49 12.50C10.39 12.52 10.32 12.53 10.28 12.54C10.23 12.54 10.21 12.56 10.19 12.56C9.95 12.61 9.84 12.75 9.84 12.99L9.84 13.82L10.91 13.82L12.63 13.82L13.69 13.82L13.69 12.99C13.69 12.75 13.58 12.61 13.34 12.56ZM12.89 4.54C12.89 4.38 12.85 4.24 12.80 4.10C12.74 3.96 12.66 3.85 12.56 3.75C12.46 3.65 12.35 3.58 12.21 3.53C12.07 3.47 11.93 3.43 11.77 3.43C11.62 3.43 11.48 3.47 11.34 3.53C11.20 3.58 11.10 3.65 11.00 3.75C10.91 3.85 10.82 3.96 10.77 4.10C10.71 4.24 10.68 4.38 10.68 4.54C10.68 4.69 10.71 4.83 10.77 4.96C10.82 5.08 10.91 5.21 11.00 5.31C11.10 5.40 11.20 5.49 11.34 5.54C11.48 5.60 11.62 5.63 11.77 5.63C11.93 5.63 12.07 5.60 12.21 5.54C12.35 5.49 12.46 5.40 12.56 5.31C12.66 5.21 12.74 5.08 12.80 4.96C12.85 4.83 12.89 4.69 12.89 4.54ZM19.70 12.11C19.63 12.00 19.52 11.96 19.38 11.96C19.26 11.96 19.18 11.98 19.10 12.05C19.01 12.12 18.90 12.19 18.79 12.28C18.68 12.36 18.52 12.43 18.35 12.50C18.19 12.57 17.96 12.60 17.68 12.60C17.40 12.60 17.16 12.54 16.94 12.45C16.72 12.33 16.53 12.18 16.38 11.98C16.23 11.77 16.11 11.52 16.03 11.23C15.95 10.93 15.90 10.58 15.90 10.21C15.90 9.84 15.95 9.52 16.02 9.23C16.09 8.93 16.21 8.68 16.37 8.47C16.52 8.26 16.70 8.12 16.93 8.01C17.15 7.90 17.42 7.84 17.72 7.84C17.96 7.84 18.28 7.88 18.65 7.98C18.70 8.54 18.75 8.88 18.76 8.99C18.80 9.16 18.90 9.25 19.08 9.25L19.66 9.25L19.82 9.25L19.88 9.25L19.89 7.04C18.97 6.69 18.21 6.52 17.63 6.52C17.07 6.52 16.56 6.62 16.13 6.80C15.69 6.99 15.33 7.24 15.04 7.57C14.74 7.91 14.52 8.30 14.36 8.75C14.21 9.20 14.14 9.67 14.14 10.21C14.14 10.79 14.22 11.33 14.39 11.79C14.56 12.25 14.80 12.63 15.09 12.95C15.39 13.27 15.72 13.51 16.11 13.68C16.51 13.85 16.91 13.92 17.36 13.92C17.61 13.92 17.88 13.90 18.13 13.86C18.38 13.82 18.63 13.76 18.87 13.68C19.11 13.58 19.35 13.47 19.57 13.31C19.80 13.16 19.99 12.96 20.19 12.74ZM24.02 6.52C23.49 6.52 22.99 6.62 22.57 6.80C22.15 6.99 21.78 7.24 21.49 7.56C21.20 7.88 20.96 8.26 20.80 8.69C20.65 9.13 20.57 9.58 20.57 10.07C20.57 10.70 20.65 11.26 20.83 11.73C21.01 12.21 21.27 12.61 21.59 12.94C21.91 13.26 22.27 13.51 22.71 13.68C23.14 13.85 23.59 13.92 24.09 13.92C24.35 13.92 24.61 13.90 24.88 13.86C25.14 13.82 25.41 13.76 25.68 13.68C25.93 13.59 26.18 13.47 26.42 13.31C26.66 13.16 26.87 12.96 27.06 12.74L26.56 12.11C26.52 12.05 26.49 12.03 26.43 12.00C26.38 11.97 26.31 11.96 26.24 11.96C26.12 11.96 26.03 11.98 25.91 12.05C25.80 12.12 25.66 12.18 25.51 12.26C25.35 12.35 25.19 12.42 24.98 12.49C24.78 12.56 24.54 12.59 24.26 12.59C23.69 12.59 23.24 12.42 22.89 12.07C22.54 11.72 22.34 11.19 22.29 10.44L26.73 10.44C26.81 10.44 26.87 10.44 26.92 10.42C26.98 10.39 27.02 10.36 27.05 10.30C27.08 10.26 27.09 10.19 27.10 10.11C27.12 10.02 27.13 9.90 27.13 9.77C27.13 9.25 27.05 8.81 26.89 8.40C26.74 7.99 26.53 7.66 26.25 7.38C25.97 7.10 25.65 6.87 25.27 6.73C24.89 6.59 24.47 6.52 24.02 6.52ZM24.05 7.76C24.30 7.76 24.53 7.81 24.72 7.90C24.92 7.98 25.07 8.09 25.20 8.25C25.33 8.40 25.42 8.57 25.48 8.76C25.54 8.96 25.58 9.17 25.58 9.39L22.33 9.39C22.41 8.88 22.60 8.47 22.88 8.19C23.16 7.91 23.55 7.76 24.05 7.76ZM35.10 6.89L35.91 6.89L35.91 4.31C34.64 3.82 33.57 3.58 32.73 3.58C31.96 3.58 31.25 3.71 30.62 3.96C29.97 4.21 29.44 4.58 28.98 5.04C28.52 5.50 28.17 6.03 27.92 6.66C27.66 7.29 27.54 8.01 27.54 8.76C27.54 9.52 27.65 10.21 27.87 10.84C28.10 11.47 28.43 12.01 28.85 12.47C29.27 12.94 29.79 13.29 30.39 13.54C31.00 13.79 31.65 13.93 32.41 13.93C33.25 13.93 33.98 13.79 34.58 13.52C35.18 13.26 35.69 12.87 36.09 12.36L35.35 11.55C35.28 11.47 35.18 11.44 35.08 11.44C35.03 11.44 34.97 11.44 34.92 11.47C34.86 11.49 34.80 11.52 34.76 11.56C34.61 11.70 34.45 11.83 34.30 11.93C34.15 12.03 33.98 12.11 33.81 12.17C33.64 12.22 33.45 12.26 33.24 12.29C33.03 12.32 32.79 12.33 32.54 12.33C32.10 12.33 31.71 12.26 31.33 12.10C30.95 11.93 30.63 11.70 30.35 11.40C30.07 11.09 29.88 10.72 29.71 10.28C29.54 9.83 29.46 9.34 29.46 8.76C29.46 8.22 29.54 7.71 29.71 7.27C29.88 6.82 30.10 6.45 30.38 6.15C30.66 5.84 31.00 5.60 31.40 5.43C31.81 5.26 32.24 5.19 32.72 5.19C33.25 5.19 33.88 5.29 34.65 5.52C34.71 6.13 34.75 6.51 34.78 6.64C34.82 6.80 34.92 6.89 35.10 6.89ZM44.46 12.56C44.35 12.54 44.37 12.54 43.76 12.43L43.76 6.64L42.03 6.64L42.03 6.64L40.98 6.64L40.98 7.46C40.98 7.70 41.09 7.84 41.33 7.90C41.44 7.91 41.44 7.92 42.03 8.02L42.03 11.83C41.79 12.07 41.55 12.25 41.29 12.38C41.02 12.50 40.74 12.57 40.45 12.57C40.04 12.57 39.73 12.46 39.54 12.22C39.34 11.98 39.23 11.63 39.23 11.20L39.23 6.64L37.51 6.64L37.51 6.64L36.44 6.64L36.44 7.46C36.44 7.70 36.55 7.84 36.79 7.90C36.90 7.91 36.90 7.91 37.51 8.02L37.51 11.20C37.51 11.61 37.56 11.97 37.66 12.31C37.77 12.64 37.91 12.92 38.12 13.16C38.33 13.40 38.58 13.61 38.88 13.73C39.19 13.86 39.54 13.93 39.93 13.93C40.17 13.93 40.38 13.90 40.59 13.86C40.80 13.80 40.99 13.73 41.17 13.65C41.36 13.57 41.52 13.47 41.68 13.34C41.83 13.22 41.99 13.08 42.14 12.92L42.27 13.50C42.34 13.71 42.48 13.82 42.70 13.82L43.76 13.82L44.81 13.82L44.81 12.99C44.81 12.75 44.70 12.61 44.46 12.56ZM52.74 8.61C52.61 8.16 52.43 7.77 52.19 7.46C51.95 7.15 51.67 6.92 51.35 6.75C51.03 6.58 50.67 6.51 50.27 6.51C49.77 6.51 49.34 6.61 48.96 6.82C48.58 7.03 48.26 7.28 47.96 7.62L47.82 6.96C47.80 6.85 47.75 6.78 47.67 6.72C47.59 6.66 47.49 6.64 47.38 6.64L46.33 6.64L45.26 6.64L45.26 7.46C45.26 7.70 45.37 7.84 45.61 7.90C45.63 7.90 45.65 7.91 45.70 7.91C45.74 7.91 45.81 7.94 45.91 7.95C46.00 7.97 46.16 7.99 46.33 8.02L46.33 14.77C46.16 14.80 46.00 14.84 45.91 14.85C45.81 14.87 45.74 14.88 45.70 14.88C45.65 14.88 45.63 14.90 45.61 14.90C45.37 14.95 45.26 15.11 45.26 15.34L45.26 16.16L46.33 16.16L48.05 16.16L49.11 16.16L49.11 15.34C49.11 15.11 49.00 14.95 48.76 14.90C48.75 14.90 48.72 14.90 48.68 14.88C48.64 14.87 48.57 14.87 48.47 14.85C48.37 14.84 48.23 14.80 48.05 14.77L48.05 13.22C48.27 13.44 48.54 13.61 48.82 13.73C49.10 13.86 49.43 13.92 49.84 13.92C50.32 13.92 50.75 13.83 51.13 13.64C51.51 13.44 51.83 13.19 52.09 12.85C52.36 12.52 52.57 12.12 52.71 11.66C52.85 11.20 52.93 10.70 52.93 10.16C52.93 9.58 52.86 9.07 52.74 8.61ZM51.03 11.26C50.95 11.56 50.82 11.82 50.68 12.01C50.53 12.21 50.36 12.36 50.15 12.46C49.94 12.56 49.70 12.60 49.43 12.60C49.17 12.60 48.92 12.56 48.69 12.46C48.47 12.36 48.24 12.19 48.05 11.96L48.05 8.74C48.27 8.46 48.51 8.25 48.76 8.09C49.01 7.94 49.32 7.87 49.69 7.87C49.91 7.87 50.11 7.91 50.29 7.99C50.47 8.08 50.62 8.22 50.75 8.40C50.88 8.58 50.97 8.81 51.04 9.10C51.11 9.39 51.14 9.76 51.14 10.18C51.14 10.60 51.11 10.95 51.03 11.26Z"></path></g><!----><!----></svg>