<?xml version="1.0" encoding="UTF-8" standalone="no" ?>
<!DOCTYPE svg PUBLIC "-//W3C//DTD SVG 1.1//EN" "http://www.w3.org/Graphics/SVG/1.1/DTD/svg11.dtd">
<svg xmlns="http://www.w3.org/2000/svg" xmlns:xlink="http://www.w3.org/1999/xlink" version="1.1" width="1080" height="1080" viewBox="0 0 1080 1080" xml:space="preserve">
<desc>Created with Fabric.js 4.2.0</desc>
<defs>
</defs>
<g transform="matrix(1 0 0 1 540 540)" id="e4d172c8-4a20-474a-bbc5-7a555e6e8cb7"  >
</g>
<g transform="matrix(1 0 0 1 540 540)" id="639cb0e1-0454-4a4a-b675-15d99a570f62"  >
<rect style="stroke: none; stroke-width: 1; stroke-dasharray: none; stroke-linecap: butt; stroke-dashoffset: 0; stroke-linejoin: miter; stroke-miterlimit: 4; fill: rgb(74,141,93); fill-opacity: 0; fill-rule: nonzero; opacity: 1;" vector-effect="non-scaling-stroke"  x="-540" y="-540" rx="0" ry="0" width="1080" height="1080" />
</g>
<g transform="matrix(2.9 0 0 0.93 539.24 546.19)"  >
<rect style="stroke: none; stroke-width: 1; stroke-dasharray: none; stroke-linecap: butt; stroke-dashoffset: 0; stroke-linejoin: miter; stroke-miterlimit: 4; fill: rgb(252,222,192); fill-rule: nonzero; opacity: 1;" vector-effect="non-scaling-stroke"  x="-150" y="-150" rx="0" ry="0" width="300" height="300" />
</g>
<g transform="matrix(10.04 0 0 10.04 685.07 523.06)"  >
<path style="stroke: none; stroke-width: 1; stroke-dasharray: none; stroke-linecap: butt; stroke-dashoffset: 0; stroke-linejoin: miter; stroke-miterlimit: 4; fill: rgb(180,132,108); fill-rule: nonzero; opacity: 1;" vector-effect="non-scaling-stroke"  transform=" translate(-26.61, -9.79)" d="M 8.99 12.56 C 8.97 12.56 8.93 12.54 8.88 12.54 C 8.82 12.54 8.75 12.52 8.64 12.5 C 8.53 12.49 8.37 12.46 8.2 12.43 L 6.61 10.08 C 6.44 9.83 6.23 9.63 5.99 9.49 C 6.34 9.38 6.66 9.23 6.94 9.04 C 7.22 8.86 7.46 8.65 7.64 8.4 C 7.83 8.15 7.98 7.88 8.08 7.57 C 8.18 7.27 8.23 6.94 8.23 6.61 C 8.23 6.17 8.16 5.8 8.01 5.43 C 7.87 5.08 7.62 4.76 7.31 4.51 C 7 4.26 6.59 4.05 6.1 3.91 C 5.61 3.77 5.01 3.7 4.33 3.7 L 1.34 3.7 L 0.28 3.7 L 0.28 4.52 C 0.28 4.76 0.39 4.9 0.63 4.96 C 0.64 4.96 0.67 4.97 0.71 4.97 C 0.76 4.97 0.83 5 0.92 5.01 C 1.02 5.03 1.18 5.05 1.34 5.08 L 1.34 12.43 C 1.18 12.46 1.02 12.49 0.92 12.5 C 0.83 12.52 0.76 12.53 0.71 12.54 C 0.67 12.54 0.64 12.56 0.63 12.56 C 0.39 12.61 0.28 12.75 0.28 12.99 L 0.28 13.82 L 1.34 13.82 L 3.22 13.82 L 4.28 13.82 L 4.28 12.99 C 4.28 12.75 4.17 12.61 3.93 12.56 C 3.92 12.56 3.89 12.54 3.85 12.54 C 3.81 12.54 3.74 12.52 3.64 12.5 C 3.54 12.49 3.39 12.46 3.22 12.43 L 3.22 9.86 L 3.93 9.86 C 4.12 9.86 4.26 9.88 4.35 9.94 C 4.45 10 4.54 10.07 4.62 10.19 L 6.75 13.44 C 6.83 13.57 6.92 13.65 7.03 13.72 C 7.14 13.79 7.28 13.82 7.45 13.82 L 8.27 13.82 L 9.14 13.82 L 9.34 13.82 L 9.34 12.99 C 9.34 12.75 9.23 12.61 8.99 12.56 Z M 5.22 8.37 C 4.96 8.46 4.65 8.51 4.3 8.51 L 3.22 8.51 L 3.22 5.15 L 4.33 5.15 C 5.03 5.15 5.54 5.28 5.88 5.56 C 6.22 5.84 6.38 6.23 6.38 6.75 C 6.38 7 6.34 7.24 6.26 7.45 C 6.17 7.66 6.05 7.85 5.88 8.01 C 5.71 8.16 5.49 8.29 5.22 8.37 Z M 13.34 12.56 C 13.33 12.56 13.3 12.54 13.26 12.54 C 13.22 12.54 13.15 12.52 13.05 12.5 C 12.95 12.49 12.8 12.46 12.63 12.43 L 12.63 6.64 L 10.91 6.64 L 9.84 6.64 L 9.84 7.46 C 9.84 7.7 9.95 7.84 10.19 7.9 C 10.21 7.9 10.23 7.91 10.28 7.91 C 10.32 7.91 10.39 7.94 10.49 7.95 C 10.58 7.97 10.74 7.99 10.91 8.02 L 10.91 12.43 C 10.74 12.46 10.58 12.49 10.49 12.5 C 10.39 12.52 10.32 12.53 10.28 12.54 C 10.23 12.54 10.21 12.56 10.19 12.56 C 9.95 12.61 9.84 12.75 9.84 12.99 L 9.84 13.82 L 10.91 13.82 L 12.63 13.82 L 13.69 13.82 L 13.69 12.99 C 13.69 12.75 13.58 12.61 13.34 12.56 Z M 12.89 4.54 C 12.89 4.38 12.85 4.24 12.8 4.1 C 12.74 3.96 12.66 3.85 12.56 3.75 C 12.46 3.65 12.35 3.58 12.21 3.53 C 12.07 3.47 11.93 3.43 11.77 3.43 C 11.62 3.43 11.48 3.47 11.34 3.53 C 11.2 3.58 11.1 3.65 11 3.75 C 10.91 3.85 10.82 3.96 10.77 4.1 C 10.71 4.24 10.68 4.38 10.68 4.54 C 10.68 4.69 10.71 4.83 10.77 4.96 C 10.82 5.08 10.91 5.21 11 5.31 C 11.1 5.4 11.2 5.49 11.34 5.54 C 11.48 5.6 11.62 5.63 11.77 5.63 C 11.93 5.63 12.07 5.6 12.21 5.54 C 12.35 5.49 12.46 5.4 12.56 5.31 C 12.66 5.21 12.74 5.08 12.8 4.96 C 12.85 4.83 12.89 4.69 12.89 4.54 Z M 19.7 12.11 C 19.63 12 19.52 11.96 19.38 11.96 C 19.26 11.96 19.18 11.98 19.1 12.05 C 19.01 12.12 18.9 12.19 18.79 12.28 C 18.68 12.36 18.52 12.43 18.35 12.5 C 18.19 12.57 17.96 12.6 17.68 12.6 C 17.4 12.6 17.16 12.54 16.94 12.45 C 16.72 12.33 16.53 12.18 16.38 11.98 C 16.23 11.77 16.11 11.52 16.03 11.23 C 15.95 10.93 15.9 10.58 15.9 10.21 C 15.9 9.84 15.95 9.52 16.02 9.23 C 16.09 8.93 16.21 8.68 16.37 8.47 C 16.52 8.26 16.7 8.12 16.93 8.01 C 17.15 7.9 17.42 7.84 17.72 7.84 C 17.96 7.84 18.28 7.88 18.65 7.98 C 18.7 8.54 18.75 8.88 18.76 8.99 C 18.8 9.16 18.9 9.25 19.08 9.25 L 19.66 9.25 L 19.82 9.25 L 19.88 9.25 L 19.89 7.04 C 18.97 6.69 18.21 6.52 17.63 6.52 C 17.07 6.52 16.56 6.62 16.13 6.8 C 15.69 6.99 15.33 7.24 15.04 7.57 C 14.74 7.91 14.52 8.3 14.36 8.75 C 14.21 9.2 14.14 9.67 14.14 10.21 C 14.14 10.79 14.22 11.33 14.39 11.79 C 14.56 12.25 14.8 12.63 15.09 12.95 C 15.39 13.27 15.72 13.51 16.11 13.68 C 16.51 13.85 16.91 13.92 17.36 13.92 C 17.61 13.92 17.88 13.9 18.13 13.86 C 18.38 13.82 18.63 13.76 18.87 13.68 C 19.11 13.58 19.35 13.47 19.57 13.31 C 19.8 13.16 19.99 12.96 20.19 12.74 Z M 24.02 6.52 C 23.49 6.52 22.99 6.62 22.57 6.8 C 22.15 6.99 21.78 7.24 21.49 7.56 C 21.2 7.88 20.96 8.26 20.8 8.69 C 20.65 9.13 20.57 9.58 20.57 10.07 C 20.57 10.7 20.65 11.26 20.83 11.73 C 21.01 12.21 21.27 12.61 21.59 12.94 C 21.91 13.26 22.27 13.51 22.71 13.68 C 23.14 13.85 23.59 13.92 24.09 13.92 C 24.35 13.92 24.61 13.9 24.88 13.86 C 25.14 13.82 25.41 13.76 25.68 13.68 C 25.93 13.59 26.18 13.47 26.42 13.31 C 26.66 13.16 26.87 12.96 27.06 12.74 L 26.56 12.11 C 26.52 12.05 26.49 12.03 26.43 12 C 26.38 11.97 26.31 11.96 26.24 11.96 C 26.12 11.96 26.03 11.98 25.91 12.05 C 25.8 12.12 25.66 12.18 25.51 12.26 C 25.35 12.35 25.19 12.42 24.98 12.49 C 24.78 12.56 24.54 12.59 24.26 12.59 C 23.69 12.59 23.24 12.42 22.89 12.07 C 22.54 11.72 22.34 11.19 22.29 10.44 L 26.73 10.44 C 26.81 10.44 26.87 10.44 26.92 10.42 C 26.98 10.39 27.02 10.36 27.05 10.3 C 27.08 10.26 27.09 10.19 27.1 10.11 C 27.12 10.02 27.13 9.9 27.13 9.77 C 27.13 9.25 27.05 8.81 26.89 8.4 C 26.74 7.99 26.53 7.66 26.25 7.38 C 25.97 7.1 25.65 6.87 25.27 6.73 C 24.89 6.59 24.47 6.52 24.02 6.52 Z M 24.05 7.76 C 24.3 7.76 24.53 7.81 24.72 7.9 C 24.92 7.98 25.07 8.09 25.2 8.25 C 25.33 8.4 25.42 8.57 25.48 8.76 C 25.54 8.96 25.58 9.17 25.58 9.39 L 22.33 9.39 C 22.41 8.88 22.6 8.47 22.88 8.19 C 23.16 7.91 23.55 7.76 24.05 7.76 Z M 35.1 6.89 L 35.91 6.89 L 35.91 4.31 C 34.64 3.82 33.57 3.58 32.73 3.58 C 31.96 3.58 31.25 3.71 30.62 3.96 C 29.97 4.21 29.44 4.58 28.98 5.04 C 28.52 5.5 28.17 6.03 27.92 6.66 C 27.66 7.29 27.54 8.01 27.54 8.76 C 27.54 9.52 27.65 10.21 27.87 10.84 C 28.1 11.47 28.43 12.01 28.85 12.47 C 29.27 12.94 29.79 13.29 30.39 13.54 C 31 13.79 31.65 13.93 32.41 13.93 C 33.25 13.93 33.98 13.79 34.58 13.52 C 35.18 13.26 35.69 12.87 36.09 12.36 L 35.35 11.55 C 35.28 11.47 35.18 11.44 35.08 11.44 C 35.03 11.44 34.97 11.44 34.92 11.47 C 34.86 11.49 34.8 11.52 34.76 11.56 C 34.61 11.7 34.45 11.83 34.3 11.93 C 34.15 12.03 33.98 12.11 33.81 12.17 C 33.64 12.22 33.45 12.26 33.24 12.29 C 33.03 12.32 32.79 12.33 32.54 12.33 C 32.1 12.33 31.71 12.26 31.33 12.1 C 30.95 11.93 30.63 11.7 30.35 11.4 C 30.07 11.09 29.88 10.72 29.71 10.28 C 29.54 9.83 29.46 9.34 29.46 8.76 C 29.46 8.22 29.54 7.71 29.71 7.27 C 29.88 6.82 30.1 6.45 30.38 6.15 C 30.66 5.84 31 5.6 31.4 5.43 C 31.81 5.26 32.24 5.19 32.72 5.19 C 33.25 5.19 33.88 5.29 34.65 5.52 C 34.71 6.13 34.75 6.51 34.78 6.64 C 34.82 6.8 34.92 6.89 35.1 6.89 Z M 44.46 12.56 C 44.35 12.54 44.37 12.54 43.76 12.43 L 43.76 6.64 L 42.03 6.64 L 42.03 6.64 L 40.98 6.64 L 40.98 7.46 C 40.98 7.7 41.09 7.84 41.33 7.9 C 41.44 7.91 41.44 7.92 42.03 8.02 L 42.03 11.83 C 41.79 12.07 41.55 12.25 41.29 12.38 C 41.02 12.5 40.74 12.57 40.45 12.57 C 40.04 12.57 39.73 12.46 39.54 12.22 C 39.34 11.98 39.23 11.63 39.23 11.2 L 39.23 6.64 L 37.51 6.64 L 37.51 6.64 L 36.44 6.64 L 36.44 7.46 C 36.44 7.7 36.55 7.84 36.79 7.9 C 36.9 7.91 36.9 7.91 37.51 8.02 L 37.51 11.2 C 37.51 11.61 37.56 11.97 37.66 12.31 C 37.77 12.64 37.91 12.92 38.12 13.16 C 38.33 13.4 38.58 13.61 38.88 13.73 C 39.19 13.86 39.54 13.93 39.93 13.93 C 40.17 13.93 40.38 13.9 40.59 13.86 C 40.8 13.8 40.99 13.73 41.17 13.65 C 41.36 13.57 41.52 13.47 41.68 13.34 C 41.83 13.22 41.99 13.08 42.14 12.92 L 42.27 13.5 C 42.34 13.71 42.48 13.82 42.7 13.82 L 43.76 13.82 L 44.81 13.82 L 44.81 12.99 C 44.81 12.75 44.7 12.61 44.46 12.56 Z M 52.74 8.61 C 52.61 8.16 52.43 7.77 52.19 7.46 C 51.95 7.15 51.67 6.92 51.35 6.75 C 51.03 6.58 50.67 6.51 50.27 6.51 C 49.77 6.51 49.34 6.61 48.96 6.82 C 48.58 7.03 48.26 7.28 47.96 7.62 L 47.82 6.96 C 47.8 6.85 47.75 6.78 47.67 6.72 C 47.59 6.66 47.49 6.64 47.38 6.64 L 46.33 6.64 L 45.26 6.64 L 45.26 7.46 C 45.26 7.7 45.37 7.84 45.61 7.9 C 45.63 7.9 45.65 7.91 45.7 7.91 C 45.74 7.91 45.81 7.94 45.91 7.95 C 46 7.97 46.16 7.99 46.33 8.02 L 46.33 14.77 C 46.16 14.8 46 14.84 45.91 14.85 C 45.81 14.87 45.74 14.88 45.7 14.88 C 45.65 14.88 45.63 14.9 45.61 14.9 C 45.37 14.95 45.26 15.11 45.26 15.34 L 45.26 16.16 L 46.33 16.16 L 48.05 16.16 L 49.11 16.16 L 49.11 15.34 C 49.11 15.11 49 14.95 48.76 14.9 C 48.75 14.9 48.72 14.9 48.68 14.88 C 48.64 14.87 48.57 14.87 48.47 14.85 C 48.37 14.84 48.23 14.8 48.05 14.77 L 48.05 13.22 C 48.27 13.44 48.54 13.61 48.82 13.73 C 49.1 13.86 49.43 13.92 49.84 13.92 C 50.32 13.92 50.75 13.83 51.13 13.64 C 51.51 13.44 51.83 13.19 52.09 12.85 C 52.36 12.52 52.57 12.12 52.71 11.66 C 52.85 11.2 52.93 10.7 52.93 10.16 C 52.93 9.58 52.86 9.07 52.74 8.61 Z M 51.03 11.26 C 50.95 11.56 50.82 11.82 50.68 12.01 C 50.53 12.21 50.36 12.36 50.15 12.46 C 49.94 12.56 49.7 12.6 49.43 12.6 C 49.17 12.6 48.92 12.56 48.69 12.46 C 48.47 12.36 48.24 12.19 48.05 11.96 L 48.05 8.74 C 48.27 8.46 48.51 8.25 48.76 8.09 C 49.01 7.94 49.32 7.87 49.69 7.87 C 49.91 7.87 50.11 7.91 50.29 7.99 C 50.47 8.08 50.62 8.22 50.75 8.4 C 50.88 8.58 50.97 8.81 51.04 9.1 C 51.11 9.39 51.14 9.76 51.14 10.18 C 51.14 10.6 51.11 10.95 51.03 11.26 Z" stroke-linecap="round" />
</g>
<g transform="matrix(2.5 0 0 2.5 247.04 544.28)"  >
<path style="stroke: none; stroke-width: 1; stroke-dasharray: none; stroke-linecap: butt; stroke-dashoffset: 0; stroke-linejoin: miter; stroke-miterlimit: 4; fill: rgb(180,132,108); fill-rule: nonzero; opacity: 1;" vector-effect="non-scaling-stroke"  transform=" translate(-50, -49.98)" d="M 46.15 96.32 C 51.556 96.32 56.415 95.362 60.643 93.70899999999999 C 62.152 93.17299999999999 63.247 92.57499999999999 63.845 92.06299999999999 C 64.132 91.82099999999998 64.251 91.66199999999999 64.289 91.59299999999999 L 64.33 87.72099999999999 C 59.073 90.201 53.016 91.59899999999999 46.149 91.59899999999999 C 39.988 91.59899999999999 34.121 90.26299999999999 28.793 87.79299999999999 L 28.883 91.72699999999999 C 29.146 92.01199999999999 29.676 92.42499999999998 30.608999999999998 92.88099999999999 C 35.399 95.07399999999998 40.641999999999996 96.32 46.15 96.32 z M 7.824 49.011 C 7.711014493911953 48.31405432126399 7.655162017709078 47.609042226439676 7.657 46.90300000000001 C 7.657 45.578 7.852 44.29800000000001 8.215 43.09100000000001 C 6.781 43.55700000000001 5.57 44.07500000000001 4.66 44.65100000000001 C 4.386359121720247 44.8252945389106 4.124462043117821 45.017374666712115 3.875999999999999 45.22600000000001 C 3.3840000000000003 45.65400000000001 3.2780000000000005 45.966000000000015 3.2780000000000005 46.152000000000015 C 3.2800000000000002 46.38200000000001 3.7760000000000007 47.60700000000001 7.824000000000001 49.01100000000002 z M 84.178 49.216 C 83.182 47.131 80.866 45.878 78.41 46.497 C 76.445 46.994 75.705 44.046 77.666 43.552 C 78.1881530098562 43.41745338027769 78.72250325794874 43.33570951787357 79.261 43.308 C 79.21515223342621 40.95735450736517 78.13145474884755 38.747490312460826 76.301 37.272 L 69.59100000000001 46.699 C 69.74300000000001 46.908 69.89000000000001 47.129 70.02300000000001 47.358999999999995 C 71.05400000000002 49.105 68.433 50.645999999999994 67.406 48.900999999999996 C 65.56800000000001 45.775 60.93000000000001 45.355 58.806000000000004 48.672999999999995 C 57.712 50.379999999999995 55.149 48.736999999999995 56.24400000000001 47.032999999999994 C 57.309000000000005 45.370999999999995 58.769000000000005 44.29299999999999 60.370000000000005 43.74799999999999 L 63.995000000000005 36.63599999999999 C 62.443000000000005 34.97299999999999 60.73800000000001 33.88599999999999 58.048 33.88599999999999 C 57.326 33.88599999999999 56.565000000000005 33.95499999999999 55.861000000000004 33.99199999999999 C 55.928000000000004 33.20799999999999 56.043000000000006 32.36399999999999 56.043000000000006 31.55699999999999 C 56.04300006655627 29.442612791806717 55.20292615521495 27.41485460013166 53.70764109041732 25.919944622519473 C 52.21235602561968 24.42503464490728 50.184387141637025 23.58546948006317 48.07000000000001 23.58599999999999 C 42.781000000000006 23.58599999999999 40.696000000000005 27.39399999999999 40.17400000000001 31.64499999999999 C 43.406000000000006 31.492999999999988 46.73100000000001 33.08899999999999 48.449000000000005 36.362999999999985 C 49.388000000000005 38.15799999999999 46.69200000000001 39.57199999999999 45.75300000000001 37.77699999999999 C 43.55200000000001 33.58499999999999 37.33200000000001 33.56599999999999 35.42200000000001 38.158999999999985 C 34.64400000000001 40.03299999999999 31.836000000000013 38.86199999999999 32.61400000000001 36.99299999999999 C 33.53600000000001 34.77099999999999 35.128000000000014 33.249999999999986 36.97100000000001 32.411999999999985 C 36.43751397496562 32.29283163190826 35.892632544541 32.23214022335019 35.34600000000001 32.23099999999999 C 31.42900000000001 32.23099999999999 29.34000000000001 34.46799999999999 27.908000000000012 37.47499999999999 C 29.115864035088215 37.700717260709276 30.261485377897664 38.18215099167563 31.26800000000001 38.886999999999986 C 32.93100000000001 40.05099999999999 31.182000000000013 42.54099999999998 29.52100000000001 41.37699999999999 C 26.653000000000013 39.365999999999985 22.44400000000001 40.444999999999986 21.02100000000001 43.856999999999985 C 20.24500000000001 45.728999999999985 17.435000000000013 44.55999999999999 18.21500000000001 42.68799999999999 C 19.40000000000001 39.84899999999999 21.82000000000001 38.066999999999986 24.49600000000001 37.51399999999999 C 23.328781328751777 37.0256661983217 22.074184403877844 36.78066761250417 20.809000000000005 36.79399999999999 C 15.223000000000008 36.79399999999999 10.695000000000007 41.32399999999999 10.695000000000007 46.90399999999999 C 10.695000000000007 47.94899999999999 10.856000000000007 48.96399999999999 11.152000000000008 49.90599999999999 L 11.175000000000008 49.980999999999995 C 14.441000000000008 50.782999999999994 18.345000000000006 51.38999999999999 22.409000000000006 51.842999999999996 C 24.397000000000006 52.06699999999999 26.395000000000007 52.247 28.349000000000007 52.398999999999994 C 29.674000000000007 48.523999999999994 34.040000000000006 45.998999999999995 38.760000000000005 45.998999999999995 C 41.846000000000004 45.998999999999995 44.68600000000001 47.04299999999999 46.687000000000005 48.797 C 48.214000000000006 50.134 46.214000000000006 52.419 44.68600000000001 51.086999999999996 C 43.28900000000001 49.861999999999995 41.181000000000004 49.037 38.760000000000005 49.037 C 35.33500000000001 49.037 32.697 50.635 31.577000000000005 52.617 C 38.92100000000001 53.067 45.039 53.092 46.304 53.092 C 48.069 53.092 59.356 53.049 70.2 51.842999999999996 C 75.477 51.25599999999999 80.479 50.41 84.178 49.215999999999994 z M 82.264 42.525 C 82.288 42.836999999999996 82.303 43.150999999999996 82.303 43.469 C 82.303 43.564 82.301 43.653 82.29299999999999 43.742000000000004 C 84.39914303959456 44.48317546956266 86.1063706029427 46.06016316793828 87.01199999999999 48.101000000000006 C 89.03299999999999 47.105000000000004 89.33199999999998 46.330000000000005 89.33199999999998 46.150000000000006 C 89.33199999999998 46.001000000000005 89.11699999999998 45.425000000000004 87.84099999999998 44.650000000000006 C 87.12099999999998 44.214000000000006 86.06599999999997 43.717000000000006 84.51899999999998 43.196000000000005 C 83.77397076333288 42.95060417376967 83.02198866557329 42.72684364711926 82.26399999999997 42.52500000000001 z M 73.972 32.788 L 94.396 1.367 C 96.68900000000001 -1.979 101.706 1.459 99.415 4.802 L 78.068 34.789 C 79.60773902046591 35.99296016286183 80.8011912863494 37.58319476634751 81.527 39.398 C 87.941 40.913000000000004 92.615 43.18300000000001 92.615 46.579 C 92.615 48.264 91.469 49.669 89.527 50.846000000000004 C 86.928 65.392 79.777 78.548 67.938 85.775 L 67.938 91.59 C 67.938 94.07900000000001 65.36500000000001 95.904 61.918000000000006 97.128 C 57.24100000000001 98.954 51.98700000000001 99.966 46.150000000000006 99.966 C 40.07000000000001 99.966 34.30200000000001 98.58399999999999 29.057000000000006 96.17699999999999 C 26.686000000000007 95.02999999999999 25.099000000000004 93.53299999999999 25.099000000000004 91.58999999999999 L 25.099000000000004 85.844 C 13.506 78.975 5.04 66.396 2.588 50.523 C 0.948 49.415 0 48.112 0 46.579 C 0 45.042 0.883 43.905 1.728 43.17 C 3.367 41.747 6.245 40.619 9.789 39.722 C 12.213956525754249 35.99293416942626 16.361817268145806 33.74493741647238 20.809999999999995 33.749 C 22.569000000000003 33.749 24.252000000000002 34.096000000000004 25.789 34.724000000000004 C 27.751773661606986 31.297484907055 31.399141491480748 29.184384892216535 35.34799999999999 29.186000000000007 C 36.004 29.186000000000003 36.65 29.244000000000003 37.275 29.354000000000003 C 38.296 24.326000000000004 42.739 20.544000000000004 48.068 20.544000000000004 C 53.925 20.544000000000004 58.714999999999996 25.117000000000004 59.056 30.886000000000003 C 61.44963554358888 31.106412283056432 63.70523986840386 32.104610272954304 65.478 33.727999999999994 L 79.989 5.269 C 81.918 1.705 87.27000000000001 4.598 85.339 8.165 L 71.623 32.463 C 72.433 32.486000000000004 73.21900000000001 32.598 73.97200000000001 32.788000000000004 z M 66.577 44.172999999999995 L 72.179 35.54899999999999 C 71.39918605461153 35.46222807637419 70.61100754455869 35.48646936331302 69.83800000000001 35.620999999999995 L 65.29400000000001 43.67099999999999 C 65.73100000000001 43.803999999999995 66.16000000000001 43.96799999999999 66.57700000000001 44.172999999999995 z" stroke-linecap="round" />
</g>
<g transform="matrix(1.71 0 0 1.71 685.82 618.87)"  >
<path style="stroke: none; stroke-width: 1; stroke-dasharray: none; stroke-linecap: butt; stroke-dashoffset: 0; stroke-linejoin: miter; stroke-miterlimit: 4; fill: rgb(125,90,80); fill-rule: nonzero; opacity: 1;" vector-effect="non-scaling-stroke"  transform=" translate(-155.04, -7.96)" d="M 5.29 2.21 L 3.98 2.21 L 0.04 11.48 L 1.2 11.48 L 2.34 8.79 L 6.93 8.79 L 8.06 11.48 L 9.23 11.48 Z M 2.74 7.83 L 4.63 3.3 L 6.52 7.83 Z M 29.6 4.37 C 27.79 4.37 26.85 5.11 26.85 6.37 C 26.85 8.93 31.51 7.84 31.51 9.59 C 31.51 10.54 30.3 10.7 29.72 10.7 C 28.36 10.7 27.83 10 27.76 9.28 L 26.67 9.28 C 26.74 10.51 27.76 11.59 29.71 11.59 C 31.44 11.59 32.56 10.85 32.56 9.49 C 32.56 6.86 27.9 7.95 27.9 6.27 C 27.9 5.59 28.48 5.26 29.57 5.26 C 30.74 5.26 31.19 5.75 31.28 6.36 L 32.34 6.36 C 32.21 5.33 31.44 4.37 29.6 4.37 Z M 40.91 11.48 L 41.96 11.48 L 41.96 4.48 L 40.91 4.48 Z M 40.87 1.93 L 40.87 3.3 L 42 3.3 L 42 1.93 Z M 56.5 7.29 C 56.5 6.05 57.36 5.32 58.39 5.32 C 59.37 5.32 60.13 6.1 60.13 7.28 L 60.13 11.48 L 61.18 11.48 L 61.18 7.25 C 61.18 5.49 59.93 4.37 58.59 4.37 C 57.2 4.37 56.46 5.31 56.18 5.78 C 55.73 4.89 54.88 4.37 53.96 4.37 C 52.82 4.37 52.15 4.98 51.83 5.54 L 51.83 4.48 L 50.78 4.48 L 50.78 11.48 L 51.83 11.48 L 51.83 7.29 C 51.83 6.05 52.68 5.32 53.72 5.32 C 54.7 5.32 55.45 6.1 55.45 7.28 L 55.45 11.48 L 56.5 11.48 Z M 73.49 11.59 C 75.53 11.59 76.87 9.98 76.87 7.98 C 76.87 5.98 75.53 4.37 73.49 4.37 C 72.32 4.37 71.5 4.84 70.98 5.6 L 70.98 4.48 L 69.93 4.48 L 69.93 14.25 L 70.98 14.25 L 70.98 10.35 C 71.5 11.1 72.32 11.59 73.49 11.59 Z M 73.35 5.32 C 74.9 5.32 75.82 6.54 75.82 7.98 C 75.82 9.42 74.9 10.64 73.35 10.64 C 71.79 10.64 70.92 9.42 70.92 7.98 C 70.92 6.54 71.79 5.32 73.35 5.32 Z M 86.3 1.68 L 85.25 1.68 L 85.25 11.48 L 86.3 11.48 Z M 98.24 10.64 C 96.82 10.64 95.91 9.65 95.76 8.4 L 101.63 8.4 L 101.63 7.98 C 101.63 5.98 100.3 4.37 98.15 4.37 C 96.01 4.37 94.68 5.98 94.68 7.98 C 94.68 9.98 96.08 11.59 98.22 11.59 C 99.89 11.59 100.93 10.72 101.42 9.46 L 100.27 9.46 C 99.89 10.16 99.22 10.64 98.24 10.64 Z M 98.15 5.32 C 99.5 5.32 100.34 6.23 100.53 7.42 L 95.77 7.42 C 95.97 6.23 96.81 5.32 98.15 5.32 Z M 123.52 4.37 C 121.79 4.37 121.09 5.73 120.95 6.2 L 120.95 4.48 L 119.9 4.48 L 119.9 11.48 L 120.95 11.48 L 120.95 8.4 C 120.95 6.86 121.9 5.42 123.47 5.42 L 123.59 5.42 L 123.59 4.37 Z M 134.67 10.64 C 133.25 10.64 132.34 9.65 132.19 8.4 L 138.05 8.4 L 138.05 7.98 C 138.05 5.98 136.72 4.37 134.58 4.37 C 132.44 4.37 131.11 5.98 131.11 7.98 C 131.11 9.98 132.51 11.59 134.65 11.59 C 136.32 11.59 137.35 10.72 137.84 9.46 L 136.7 9.46 C 136.32 10.16 135.65 10.64 134.67 10.64 Z M 134.58 5.32 C 135.93 5.32 136.77 6.23 136.96 7.42 L 132.2 7.42 C 132.4 6.23 133.24 5.32 134.58 5.32 Z M 149.49 10.64 C 147.94 10.64 146.96 9.42 146.96 7.98 C 146.96 6.54 147.94 5.32 149.49 5.32 C 150.49 5.32 151.2 5.88 151.52 6.68 L 152.66 6.68 C 152.25 5.32 151 4.37 149.35 4.37 C 147.25 4.37 145.91 5.98 145.91 7.98 C 145.91 9.98 147.25 11.59 149.35 11.59 C 151 11.59 152.25 10.64 152.66 9.28 L 151.52 9.28 C 151.2 10.08 150.49 10.64 149.49 10.64 Z M 160.96 11.48 L 162.01 11.48 L 162.01 4.48 L 160.96 4.48 Z M 160.92 1.93 L 160.92 3.3 L 162.05 3.3 L 162.05 1.93 Z M 174.38 11.59 C 176.43 11.59 177.77 9.98 177.77 7.98 C 177.77 5.98 176.43 4.37 174.38 4.37 C 173.22 4.37 172.4 4.84 171.88 5.6 L 171.88 4.48 L 170.83 4.48 L 170.83 14.25 L 171.88 14.25 L 171.88 10.35 C 172.4 11.1 173.22 11.59 174.38 11.59 Z M 174.24 5.32 C 175.8 5.32 176.72 6.54 176.72 7.98 C 176.72 9.42 175.8 10.64 174.24 10.64 C 172.69 10.64 171.82 9.42 171.82 7.98 C 171.82 6.54 172.69 5.32 174.24 5.32 Z M 189.27 10.64 C 187.85 10.64 186.94 9.65 186.79 8.4 L 192.65 8.4 L 192.65 7.98 C 192.65 5.98 191.32 4.37 189.18 4.37 C 187.04 4.37 185.71 5.98 185.71 7.98 C 185.71 9.98 187.11 11.59 189.25 11.59 C 190.92 11.59 191.95 10.72 192.44 9.46 L 191.3 9.46 C 190.92 10.16 190.25 10.64 189.27 10.64 Z M 189.18 5.32 C 190.53 5.32 191.37 6.23 191.56 7.42 L 186.8 7.42 C 187 6.23 187.84 5.32 189.18 5.32 Z M 213.88 4.37 C 211.83 4.37 210.49 5.98 210.49 7.98 C 210.49 9.98 211.83 11.59 213.88 11.59 C 215.04 11.59 215.87 11.12 216.38 10.36 L 216.38 11.48 L 217.43 11.48 L 217.43 4.48 L 216.38 4.48 L 216.38 5.61 C 215.87 4.86 215.04 4.37 213.88 4.37 Z M 214.02 10.64 C 212.46 10.64 211.54 9.42 211.54 7.98 C 211.54 6.54 212.46 5.32 214.02 5.32 C 215.57 5.32 216.44 6.54 216.44 7.98 C 216.44 9.42 215.57 10.64 214.02 10.64 Z M 229.21 4.37 C 227.16 4.37 225.82 5.98 225.82 7.98 C 225.82 9.98 227.16 11.59 229.21 11.59 C 230.37 11.59 231.2 11.12 231.71 10.36 L 231.71 11.48 L 232.76 11.48 L 232.76 1.68 L 231.71 1.68 L 231.71 5.61 C 231.2 4.86 230.37 4.37 229.21 4.37 Z M 229.35 10.64 C 227.79 10.64 226.87 9.42 226.87 7.98 C 226.87 6.54 227.79 5.32 229.35 5.32 C 230.9 5.32 231.77 6.54 231.77 7.98 C 231.77 9.42 230.9 10.64 229.35 10.64 Z M 241.58 14.25 L 242.63 14.25 L 242.63 4.48 L 241.58 4.48 Z M 241.54 1.93 L 241.54 3.3 L 242.68 3.3 L 242.68 1.93 Z M 257.56 11.48 L 257.56 4.48 L 256.51 4.48 L 256.51 8.51 C 256.51 9.77 255.56 10.64 254.39 10.64 C 253.25 10.64 252.43 9.8 252.43 8.53 L 252.43 4.48 L 251.38 4.48 L 251.38 8.55 C 251.38 10.54 252.74 11.59 254.18 11.59 C 255.32 11.59 256 11.06 256.51 10.39 L 256.51 11.48 Z M 268.81 4.37 C 267.01 4.37 266.07 5.11 266.07 6.37 C 266.07 8.93 270.73 7.84 270.73 9.59 C 270.73 10.54 269.51 10.7 268.94 10.7 C 267.58 10.7 267.05 10 266.98 9.28 L 265.89 9.28 C 265.96 10.51 266.98 11.59 268.93 11.59 C 270.66 11.59 271.78 10.85 271.78 9.49 C 271.78 6.86 267.12 7.95 267.12 6.27 C 267.12 5.59 267.69 5.26 268.79 5.26 C 269.96 5.26 270.41 5.75 270.49 6.36 L 271.56 6.36 C 271.43 5.33 270.66 4.37 268.81 4.37 Z M 281.93 11.48 L 281.93 5.4 L 283.54 5.4 L 283.54 4.48 L 281.93 4.48 L 281.93 1.97 L 280.88 1.97 L 280.88 4.48 L 279.45 4.48 L 279.45 5.4 L 280.88 5.4 L 280.88 11.48 Z M 294.67 10.64 C 293.26 10.64 292.35 9.65 292.19 8.4 L 298.06 8.4 L 298.06 7.98 C 298.06 5.98 296.73 4.37 294.59 4.37 C 292.45 4.37 291.12 5.98 291.12 7.98 C 291.12 9.98 292.52 11.59 294.66 11.59 C 296.32 11.59 297.36 10.72 297.85 9.46 L 296.7 9.46 C 296.32 10.16 295.65 10.64 294.67 10.64 Z M 294.59 5.32 C 295.93 5.32 296.77 6.23 296.97 7.42 L 292.21 7.42 C 292.4 6.23 293.24 5.32 294.59 5.32 Z M 309.97 4.37 C 308.24 4.37 307.54 5.73 307.4 6.2 L 307.4 4.48 L 306.35 4.48 L 306.35 11.48 L 307.4 11.48 L 307.4 8.4 C 307.4 6.86 308.35 5.42 309.92 5.42 L 310.04 5.42 L 310.04 4.37 Z" stroke-linecap="round" />
</g>
</svg>