<?xml version="1.0" encoding="utf-8"?>
<svg viewBox="9.271 8.653 391.842 122.373" xmlns="http://www.w3.org/2000/svg">
  <g data-v-423bf9ae="" id="ce594547-170d-489f-965c-889a5a2b9b92" fill="#B4846C" transform="matrix(4.713276, 0, 0, 4.713276, 138.919876, 8.420646)">
    <g transform="matrix(1, 0, 0, 1, 0, 2.360321)">
      <path d="M 8.99 12.56 C 8.97 12.56 8.93 12.54 8.88 12.54 C 8.82 12.54 8.75 12.52 8.64 12.5 C 8.53 12.49 8.37 12.46 8.2 12.43 L 6.61 10.08 C 6.44 9.83 6.23 9.63 5.99 9.49 C 6.34 9.38 6.66 9.23 6.94 9.04 C 7.22 8.86 7.46 8.65 7.64 8.4 C 7.83 8.15 7.98 7.88 8.08 7.57 C 8.18 7.27 8.23 6.94 8.23 6.61 C 8.23 6.17 8.16 5.8 8.01 5.43 C 7.87 5.08 7.62 4.76 7.31 4.51 C 7 4.26 6.59 4.05 6.1 3.91 C 5.61 3.77 5.01 3.7 4.33 3.7 L 1.34 3.7 L 0.28 3.7 L 0.28 4.52 C 0.28 4.76 0.39 4.9 0.63 4.96 C 0.64 4.96 0.67 4.97 0.71 4.97 C 0.76 4.97 0.83 5 0.92 5.01 C 1.02 5.03 1.18 5.05 1.34 5.08 C 1.469 6.494 1.556 14.809 1.34 12.43 C 1.18 12.46 1.02 12.49 0.92 12.5 C 0.83 12.52 0.76 12.53 0.71 12.54 C 0.67 12.54 0.64 12.56 0.63 12.56 C 0.39 12.61 0.28 12.75 0.28 12.99 L 0.28 13.82 L 1.34 13.82 L 3.22 13.82 L 4.28 13.82 L 4.28 12.99 C 4.28 12.75 4.17 12.61 3.93 12.56 C 3.92 12.56 3.89 12.54 3.85 12.54 C 3.81 12.54 3.74 12.52 3.64 12.5 C 3.54 12.49 3.39 12.46 3.22 12.43 L 3.22 9.86 L 3.93 9.86 C 4.12 9.86 4.26 9.88 4.35 9.94 C 4.45 10 4.54 10.07 4.62 10.19 L 6.75 13.44 C 6.83 13.57 6.92 13.65 7.03 13.72 C 7.14 13.79 7.28 13.82 7.45 13.82 L 8.27 13.82 L 9.14 13.82 L 9.34 13.82 L 9.34 12.99 C 9.34 12.75 9.23 12.61 8.99 12.56 Z M 5.22 8.37 C 4.96 8.46 4.65 8.51 4.3 8.51 L 3.22 8.51 L 3.22 5.15 L 4.33 5.15 C 5.03 5.15 5.54 5.28 5.88 5.56 C 6.22 5.84 6.38 6.23 6.38 6.75 C 6.38 7 6.34 7.24 6.26 7.45 C 6.17 7.66 6.05 7.85 5.88 8.01 C 5.71 8.16 5.49 8.29 5.22 8.37 Z M 13.34 12.56 C 13.33 12.56 13.3 12.54 13.26 12.54 C 13.22 12.54 13.15 12.52 13.05 12.5 C 12.95 12.49 12.8 12.46 12.63 12.43 L 12.63 6.64 L 10.91 6.64 L 9.84 6.64 L 9.84 7.46 C 9.84 7.7 9.95 7.84 10.19 7.9 C 10.21 7.9 10.23 7.91 10.28 7.91 C 10.32 7.91 10.39 7.94 10.49 7.95 C 10.58 7.97 10.74 7.99 10.91 8.02 L 10.91 12.43 C 10.74 12.46 10.58 12.49 10.49 12.5 C 10.39 12.52 10.32 12.53 10.28 12.54 C 10.23 12.54 10.21 12.56 10.19 12.56 C 9.95 12.61 9.84 12.75 9.84 12.99 L 9.84 13.82 L 10.91 13.82 L 12.63 13.82 L 13.69 13.82 L 13.69 12.99 C 13.69 12.75 13.58 12.61 13.34 12.56 Z M 12.89 4.54 C 12.89 4.38 12.85 4.24 12.8 4.1 C 12.74 3.96 12.66 3.85 12.56 3.75 C 12.46 3.65 12.35 3.58 12.21 3.53 C 12.07 3.47 11.93 3.43 11.77 3.43 C 11.62 3.43 11.48 3.47 11.34 3.53 C 11.2 3.58 11.1 3.65 11 3.75 C 10.91 3.85 10.82 3.96 10.77 4.1 C 10.71 4.24 10.68 4.38 10.68 4.54 C 10.68 4.69 10.71 4.83 10.77 4.96 C 10.82 5.08 10.91 5.21 11 5.31 C 11.1 5.4 11.2 5.49 11.34 5.54 C 11.48 5.6 11.62 5.63 11.77 5.63 C 11.93 5.63 12.07 5.6 12.21 5.54 C 12.35 5.49 12.46 5.4 12.56 5.31 C 12.66 5.21 12.74 5.08 12.8 4.96 C 12.85 4.83 12.89 4.69 12.89 4.54 Z M 19.7 12.11 C 19.63 12 19.52 11.96 19.38 11.96 C 19.26 11.96 19.18 11.98 19.1 12.05 C 19.01 12.12 18.9 12.19 18.79 12.28 C 18.68 12.36 18.52 12.43 18.35 12.5 C 18.19 12.57 17.96 12.6 17.68 12.6 C 17.4 12.6 17.16 12.54 16.94 12.45 C 16.72 12.33 16.53 12.18 16.38 11.98 C 16.23 11.77 16.11 11.52 16.03 11.23 C 15.95 10.93 15.9 10.58 15.9 10.21 C 15.9 9.84 15.95 9.52 16.02 9.23 C 16.09 8.93 16.21 8.68 16.37 8.47 C 16.52 8.26 16.7 8.12 16.93 8.01 C 17.15 7.9 17.42 7.84 17.72 7.84 C 17.96 7.84 18.28 7.88 18.65 7.98 C 18.7 8.54 18.75 8.88 18.76 8.99 C 18.8 9.16 18.9 9.25 19.08 9.25 L 19.66 9.25 L 19.82 9.25 L 19.88 9.25 L 19.89 7.04 C 18.97 6.69 18.21 6.52 17.63 6.52 C 17.07 6.52 16.56 6.62 16.13 6.8 C 15.69 6.99 15.33 7.24 15.04 7.57 C 14.74 7.91 14.52 8.3 14.36 8.75 C 14.21 9.2 14.14 9.67 14.14 10.21 C 14.14 10.79 14.22 11.33 14.39 11.79 C 14.56 12.25 14.8 12.63 15.09 12.95 C 15.39 13.27 15.72 13.51 16.11 13.68 C 16.51 13.85 16.91 13.92 17.36 13.92 C 17.61 13.92 17.88 13.9 18.13 13.86 C 18.38 13.82 18.63 13.76 18.87 13.68 C 19.11 13.58 19.35 13.47 19.57 13.31 C 19.8 13.16 19.99 12.96 20.19 12.74 L 19.7 12.11 Z M 24.02 6.52 C 23.49 6.52 22.99 6.62 22.57 6.8 C 22.15 6.99 21.78 7.24 21.49 7.56 C 21.2 7.88 20.96 8.26 20.8 8.69 C 20.65 9.13 20.57 9.58 20.57 10.07 C 20.57 10.7 20.65 11.26 20.83 11.73 C 21.01 12.21 21.27 12.61 21.59 12.94 C 21.91 13.26 22.27 13.51 22.71 13.68 C 23.14 13.85 23.59 13.92 24.09 13.92 C 24.35 13.92 24.61 13.9 24.88 13.86 C 25.14 13.82 25.41 13.76 25.68 13.68 C 25.93 13.59 26.18 13.47 26.42 13.31 C 26.66 13.16 26.87 12.96 27.06 12.74 L 26.56 12.11 C 26.52 12.05 26.49 12.03 26.43 12 C 26.38 11.97 26.31 11.96 26.24 11.96 C 26.12 11.96 26.03 11.98 25.91 12.05 C 25.8 12.12 25.66 12.18 25.51 12.26 C 25.35 12.35 25.19 12.42 24.98 12.49 C 24.78 12.56 24.54 12.59 24.26 12.59 C 23.69 12.59 23.24 12.42 22.89 12.07 C 22.54 11.72 22.34 11.19 22.29 10.44 L 26.73 10.44 C 26.81 10.44 26.87 10.44 26.92 10.42 C 26.98 10.39 27.02 10.36 27.05 10.3 C 27.08 10.26 27.09 10.19 27.1 10.11 C 27.12 10.02 27.13 9.9 27.13 9.77 C 27.13 9.25 27.05 8.81 26.89 8.4 C 26.74 7.99 26.53 7.66 26.25 7.38 C 25.97 7.1 25.65 6.87 25.27 6.73 C 24.89 6.59 24.47 6.52 24.02 6.52 Z M 24.05 7.76 C 24.3 7.76 24.53 7.81 24.72 7.9 C 24.92 7.98 25.07 8.09 25.2 8.25 C 25.33 8.4 25.42 8.57 25.48 8.76 C 25.54 8.96 25.58 9.17 25.58 9.39 L 22.33 9.39 C 22.41 8.88 22.6 8.47 22.88 8.19 C 23.16 7.91 23.55 7.76 24.05 7.76 Z M 35.1 6.89 L 35.91 6.89 L 35.91 4.31 C 34.64 3.82 33.57 3.58 32.73 3.58 C 31.96 3.58 31.25 3.71 30.62 3.96 C 29.97 4.21 29.44 4.58 28.98 5.04 C 28.52 5.5 28.17 6.03 27.92 6.66 C 27.66 7.29 27.54 8.01 27.54 8.76 C 27.54 9.52 27.65 10.21 27.87 10.84 C 28.1 11.47 28.43 12.01 28.85 12.47 C 29.27 12.94 29.79 13.29 30.39 13.54 C 31 13.79 31.65 13.93 32.41 13.93 C 33.25 13.93 33.98 13.79 34.58 13.52 C 35.18 13.26 35.69 12.87 36.09 12.36 L 35.35 11.55 C 35.28 11.47 35.18 11.44 35.08 11.44 C 35.03 11.44 34.97 11.44 34.92 11.47 C 34.86 11.49 34.8 11.52 34.76 11.56 C 34.61 11.7 34.45 11.83 34.3 11.93 C 34.15 12.03 33.98 12.11 33.81 12.17 C 33.64 12.22 33.45 12.26 33.24 12.29 C 33.03 12.32 32.79 12.33 32.54 12.33 C 32.1 12.33 31.71 12.26 31.33 12.1 C 30.95 11.93 30.63 11.7 30.35 11.4 C 30.07 11.09 29.88 10.72 29.71 10.28 C 29.54 9.83 29.46 9.34 29.46 8.76 C 29.46 8.22 29.54 7.71 29.71 7.27 C 29.88 6.82 30.1 6.45 30.38 6.15 C 30.66 5.84 31 5.6 31.4 5.43 C 31.81 5.26 32.24 5.19 32.72 5.19 C 33.25 5.19 33.88 5.29 34.65 5.52 C 34.71 6.13 34.75 6.51 34.78 6.64 C 34.82 6.8 34.92 6.89 35.1 6.89 Z M 44.46 12.56 C 44.35 12.54 44.37 12.54 43.76 12.43 L 43.76 6.64 L 42.03 6.64 L 40.98 6.64 L 40.98 7.46 C 40.98 7.7 41.09 7.84 41.33 7.9 C 41.44 7.91 41.44 7.92 42.03 8.02 L 42.03 11.83 C 41.79 12.07 41.55 12.25 41.29 12.38 C 41.02 12.5 40.74 12.57 40.45 12.57 C 40.04 12.57 39.73 12.46 39.54 12.22 C 39.34 11.98 39.23 11.63 39.23 11.2 L 39.23 6.64 L 37.51 6.64 L 36.44 6.64 L 36.44 7.46 C 36.44 7.7 36.55 7.84 36.79 7.9 C 36.9 7.91 36.9 7.91 37.51 8.02 L 37.51 11.2 C 37.51 11.61 37.56 11.97 37.66 12.31 C 37.77 12.64 37.91 12.92 38.12 13.16 C 38.33 13.4 38.58 13.61 38.88 13.73 C 39.19 13.86 39.54 13.93 39.93 13.93 C 40.17 13.93 40.38 13.9 40.59 13.86 C 40.8 13.8 40.99 13.73 41.17 13.65 C 41.36 13.57 41.52 13.47 41.68 13.34 C 41.83 13.22 41.99 13.08 42.14 12.92 L 42.27 13.5 C 42.34 13.71 42.48 13.82 42.7 13.82 L 43.76 13.82 L 44.81 13.82 L 44.81 12.99 C 44.81 12.75 44.7 12.61 44.46 12.56 Z M 52.74 8.61 C 52.61 8.16 52.43 7.77 52.19 7.46 C 51.95 7.15 51.67 6.92 51.35 6.75 C 51.03 6.58 50.67 6.51 50.27 6.51 C 49.77 6.51 49.34 6.61 48.96 6.82 C 48.58 7.03 48.26 7.28 47.96 7.62 L 47.82 6.96 C 47.8 6.85 47.75 6.78 47.67 6.72 C 47.59 6.66 47.49 6.64 47.38 6.64 L 46.33 6.64 L 45.26 6.64 L 45.26 7.46 C 45.26 7.7 45.37 7.84 45.61 7.9 C 45.63 7.9 45.65 7.91 45.7 7.91 C 45.74 7.91 45.81 7.94 45.91 7.95 C 46 7.97 46.16 7.99 46.33 8.02 L 46.33 14.77 C 46.16 14.8 46 14.84 45.91 14.85 C 45.81 14.87 45.74 14.88 45.7 14.88 C 45.65 14.88 45.63 14.9 45.61 14.9 C 45.37 14.95 45.26 15.11 45.26 15.34 L 45.26 16.16 L 46.33 16.16 L 48.05 16.16 L 49.11 16.16 L 49.11 15.34 C 49.11 15.11 49 14.95 48.76 14.9 C 48.75 14.9 48.72 14.9 48.68 14.88 C 48.64 14.87 48.57 14.87 48.47 14.85 C 48.37 14.84 48.23 14.8 48.05 14.77 L 48.05 13.22 C 48.27 13.44 48.54 13.61 48.82 13.73 C 49.1 13.86 49.43 13.92 49.84 13.92 C 50.32 13.92 50.75 13.83 51.13 13.64 C 51.51 13.44 51.83 13.19 52.09 12.85 C 52.36 12.52 52.57 12.12 52.71 11.66 C 52.85 11.2 52.93 10.7 52.93 10.16 C 52.93 9.58 52.86 9.07 52.74 8.61 Z M 51.03 11.26 C 50.95 11.56 50.82 11.82 50.68 12.01 C 50.53 12.21 50.36 12.36 50.15 12.46 C 49.94 12.56 49.7 12.6 49.43 12.6 C 49.17 12.6 48.92 12.56 48.69 12.46 C 48.47 12.36 48.24 12.19 48.05 11.96 L 48.05 8.74 C 48.27 8.46 48.51 8.25 48.76 8.09 C 49.01 7.94 49.32 7.87 49.69 7.87 C 49.91 7.87 50.11 7.91 50.29 7.99 C 50.47 8.08 50.62 8.22 50.75 8.4 C 50.88 8.58 50.97 8.81 51.04 9.1 C 51.11 9.39 51.14 9.76 51.14 10.18 C 51.14 10.6 51.11 10.95 51.03 11.26 Z"/>
    </g>
  </g>
  <g data-v-423bf9ae="" id="2e7baf74-8308-43df-8135-61dd6939fd8e" transform="matrix(1.110736, 0, 0, 1.110736, 11.482803, 13.326295)" stroke="none" fill="#B4846C">
    <path d="M46.15 96.32c5.406 0 10.265-.958 14.493-2.611 1.509-.536 2.604-1.134 3.202-1.646.287-.242.406-.401.444-.47l.041-3.872c-5.257 2.48-11.314 3.878-18.181 3.878-6.161 0-12.028-1.336-17.356-3.806l.09 3.934c.263.285.793.698 1.726 1.154 4.79 2.193 10.033 3.439 15.541 3.439zM7.824 49.011a12.962 12.962 0 0 1-.167-2.108c0-1.325.195-2.605.558-3.812-1.434.466-2.645.984-3.555 1.56a7.409 7.409 0 0 0-.784.575c-.492.428-.598.74-.598.926.002.23.498 1.455 4.546 2.859zm76.354.205c-.996-2.085-3.312-3.338-5.768-2.719-1.965.497-2.705-2.451-.744-2.945a8.05 8.05 0 0 1 1.595-.244 7.952 7.952 0 0 0-2.96-6.036l-6.71 9.427c.152.209.299.43.432.66 1.031 1.746-1.59 3.287-2.617 1.542-1.838-3.126-6.476-3.546-8.6-.228-1.094 1.707-3.657.064-2.562-1.64 1.065-1.662 2.525-2.74 4.126-3.285l3.625-7.112c-1.552-1.663-3.257-2.75-5.947-2.75-.722 0-1.483.069-2.187.106.067-.784.182-1.628.182-2.435a7.971 7.971 0 0 0-7.973-7.971c-5.289 0-7.374 3.808-7.896 8.059 3.232-.152 6.557 1.444 8.275 4.718.939 1.795-1.757 3.209-2.696 1.414-2.201-4.192-8.421-4.211-10.331.382-.778 1.874-3.586.703-2.808-1.166.922-2.222 2.514-3.743 4.357-4.581a7.526 7.526 0 0 0-1.625-.181c-3.917 0-6.006 2.237-7.438 5.244a8.617 8.617 0 0 1 3.36 1.412c1.663 1.164-.086 3.654-1.747 2.49-2.868-2.011-7.077-.932-8.5 2.48-.776 1.872-3.586.703-2.806-1.169 1.185-2.839 3.605-4.621 6.281-5.174a9.299 9.299 0 0 0-3.687-.72c-5.586 0-10.114 4.53-10.114 10.11 0 1.045.161 2.06.457 3.002l.023.075c3.266.802 7.17 1.409 11.234 1.862 1.988.224 3.986.404 5.94.556 1.325-3.875 5.691-6.4 10.411-6.4 3.086 0 5.926 1.044 7.927 2.798 1.527 1.337-.473 3.622-2.001 2.29-1.397-1.225-3.505-2.05-5.926-2.05-3.425 0-6.063 1.598-7.183 3.58 7.344.45 13.462.475 14.727.475 1.765 0 13.052-.043 23.896-1.249 5.277-.587 10.279-1.433 13.978-2.627zm-1.914-6.691c.024.312.039.626.039.944 0 .095-.002.184-.01.273a8.107 8.107 0 0 1 4.719 4.359c2.021-.996 2.32-1.771 2.32-1.951 0-.149-.215-.725-1.491-1.5-.72-.436-1.775-.933-3.322-1.454a40.614 40.614 0 0 0-2.255-.671zm-8.292-9.737L94.396 1.367c2.293-3.346 7.31.092 5.019 3.435L78.068 34.789a11.068 11.068 0 0 1 3.459 4.609c6.414 1.515 11.088 3.785 11.088 7.181 0 1.685-1.146 3.09-3.088 4.267-2.599 14.546-9.75 27.702-21.589 34.929v5.815c0 2.489-2.573 4.314-6.02 5.538-4.677 1.826-9.931 2.838-15.768 2.838-6.08 0-11.848-1.382-17.093-3.789-2.371-1.147-3.958-2.644-3.958-4.587v-5.746C13.506 78.975 5.04 66.396 2.588 50.523.948 49.415 0 48.112 0 46.579c0-1.537.883-2.674 1.728-3.409 1.639-1.423 4.517-2.551 8.061-3.448a13.132 13.132 0 0 1 11.021-5.973c1.759 0 3.442.347 4.979.975a11.011 11.011 0 0 1 9.559-5.538c.656 0 1.302.058 1.927.168 1.021-5.028 5.464-8.81 10.793-8.81 5.857 0 10.647 4.573 10.988 10.342a11.003 11.003 0 0 1 6.422 2.842L79.989 5.269c1.929-3.564 7.281-.671 5.35 2.896L71.623 32.463c.81.023 1.596.135 2.349.325zm-7.395 11.385l5.602-8.624a8.3 8.3 0 0 0-2.341.072l-4.544 8.05c.437.133.866.297 1.283.502z"/>
  </g>
  <text style="white-space: pre; fill: rgb(180, 132, 108); font-size: 7.5px;" x="325.793" y="104.995"><tspan x="325.7929992675781" dy="1em">​</tspan></text>
  <text style="fill: rgb(125, 90, 80); font-size: 13.5px; letter-spacing: 4px; white-space: pre;" x="133.989" y="111.004">A simple recipe adjuster
</text>
</svg>